<svg width="27" height="32" viewBox="0 0 27 32" fill="none" xmlns="http://www.w3.org/2000/svg">
<path d="M22.2578 16.9293C22.274 15.7399 22.6075 14.5737 23.2272 13.5392C23.847 12.5047 24.7329 11.6356 25.8026 11.0126C25.1231 10.0932 24.2266 9.33666 23.1845 8.80292C22.1423 8.26918 20.9831 7.97301 19.799 7.93791C17.2731 7.68674 14.8243 9.36979 13.5371 9.36979C12.2251 9.36979 10.2433 7.96285 8.10918 8.00444C6.72881 8.04669 5.38352 8.42696 4.20441 9.10819C3.02529 9.78942 2.05255 10.7484 1.38097 11.8917C-1.52818 16.6632 0.641783 23.6756 3.4285 27.5326C4.82275 29.4212 6.45224 31.5308 8.58438 31.456C10.6708 31.374 11.4501 30.1956 13.9686 30.1956C16.4637 30.1956 17.1948 31.456 19.3702 31.4085C21.609 31.374 23.0196 29.5114 24.3649 27.6049C25.3667 26.2592 26.1376 24.7719 26.6489 23.1981C25.3482 22.6769 24.2383 21.8046 23.4574 20.6898C22.6765 19.575 22.2593 18.2672 22.2578 16.9293Z" fill="white"/>
<path d="M18.1491 5.40113C19.3698 4.01289 19.9712 2.22853 19.8256 0.427002C17.9606 0.612566 16.2379 1.45696 15.0007 2.79195C14.3958 3.44412 13.9325 4.20284 13.6373 5.02474C13.3421 5.84663 13.2208 6.71559 13.2803 7.58193C14.2132 7.59102 15.136 7.39949 15.9794 7.02174C16.8227 6.64399 17.5646 6.08988 18.1491 5.40113Z" fill="white"/>
</svg>
