<svg width="376" height="224" viewBox="0 0 376 224" fill="none" xmlns="http://www.w3.org/2000/svg">
<path d="M372.737 70.4312V202.673H202.181V70.4312C202.175 68.6788 202.484 66.9425 203.088 65.3223C203.692 63.7021 204.58 62.23 205.701 60.9908C206.822 59.7517 208.153 58.7698 209.619 58.1019C211.084 57.4339 212.654 57.0931 214.24 57.099H360.678C362.263 57.0931 363.834 57.4339 365.299 58.1019C366.765 58.7698 368.096 59.7517 369.217 60.9908C370.338 62.23 371.226 63.7021 371.83 65.3223C372.434 66.9425 372.742 68.6788 372.737 70.4312Z" stroke="#EDEDED" stroke-width="2.49383" stroke-linecap="round" stroke-linejoin="round"/>
<path d="M372.737 70.4313V71.0337H202.181V70.4313C202.175 68.6788 202.484 66.9425 203.088 65.3223C203.692 63.7021 204.58 62.23 205.701 60.9908C206.822 59.7517 208.153 58.7698 209.619 58.1019C211.084 57.4339 212.654 57.0931 214.24 57.099H360.678C362.263 57.0931 363.834 57.4339 365.299 58.1019C366.765 58.7698 368.096 59.7517 369.217 60.9908C370.338 62.23 371.226 63.7021 371.83 65.3223C372.434 66.9425 372.742 68.6788 372.737 70.4313Z" stroke="#DDDDDD" stroke-width="2.49383" stroke-linecap="round" stroke-linejoin="round"/>
<path d="M349.654 64.0627C349.654 64.5427 349.525 65.012 349.284 65.4112C349.042 65.8104 348.7 66.1215 348.298 66.3052C347.897 66.4889 347.456 66.537 347.03 66.4433C346.604 66.3497 346.213 66.1185 345.906 65.779C345.599 65.4396 345.39 65.0071 345.305 64.5362C345.22 64.0654 345.264 63.5773 345.43 63.1338C345.596 62.6902 345.877 62.3112 346.238 62.0444C346.599 61.7777 347.024 61.6354 347.458 61.6354C348.04 61.6354 348.599 61.8911 349.011 62.3463C349.422 62.8015 349.654 63.4189 349.654 64.0627Z" fill="#EDEDED"/>
<path d="M354.612 66.4899C355.824 66.4899 356.807 65.4032 356.807 64.0627C356.807 62.7221 355.824 61.6354 354.612 61.6354C353.399 61.6354 352.416 62.7221 352.416 64.0627C352.416 65.4032 353.399 66.4899 354.612 66.4899Z" fill="#DDDDDD"/>
<path d="M361.773 66.4899C362.985 66.4899 363.968 65.4032 363.968 64.0627C363.968 62.7221 362.985 61.6354 361.773 61.6354C360.56 61.6354 359.577 62.7221 359.577 64.0627C359.577 65.4032 360.56 66.4899 361.773 66.4899Z" fill="#EDEDED"/>
<path d="M212.235 134.324C207.364 118.379 206.218 109.768 207.548 108.537C208.349 107.757 209.687 107.181 209.792 105.604C209.896 104.028 208.261 98.73 213.966 97.4898C213.966 97.4898 215.897 84.9902 217.732 79.1346C217.732 79.1346 227.924 123.986 228.637 127.352C229.35 130.719 215.545 145.203 212.235 134.324Z" fill="#FEBD9D"/>
<path d="M213.968 97.4854C213.595 99.4923 213.328 101.521 213.167 103.562" stroke="#EF8A66" stroke-width="0.935186" stroke-linecap="round" stroke-linejoin="round"/>
<path d="M207.194 113.249C206.898 110.592 207.042 109.015 207.555 108.537C208.356 107.757 209.694 107.181 209.798 105.604C209.902 104.027 208.268 98.73 213.973 97.4898C213.973 97.4898 215.904 84.9902 217.739 79.1346" stroke="#EF8A66" stroke-width="0.935186" stroke-linecap="round" stroke-linejoin="round"/>
<path d="M261.789 52.3068L217.137 66.2294C214.531 67.0422 213.014 70.0372 213.749 72.919L222.416 106.895C223.151 109.777 225.86 111.455 228.467 110.642L273.118 96.7191C275.725 95.9064 277.242 92.9113 276.507 90.0295L267.839 56.0531C267.104 53.1713 264.395 51.494 261.789 52.3068Z" fill="#F9F9F9" stroke="#DDDDDD" stroke-width="1.24691" stroke-linecap="round" stroke-linejoin="round"/>
<path d="M259.586 57.2682L221.382 69.1806C219.657 69.7184 218.653 71.7004 219.14 73.6075L226.689 103.201C227.175 105.109 228.968 106.219 230.693 105.681L268.897 93.7683C270.622 93.2304 271.626 91.2484 271.14 89.3414L263.59 59.7474C263.104 57.8403 261.311 56.7303 259.586 57.2682Z" stroke="#EDEDED" stroke-width="1.24691" stroke-linecap="round" stroke-linejoin="round"/>
<path d="M248.51 85.901C248.522 86.1519 248.522 86.4032 248.51 86.654C248.385 88.5599 247.783 90.3898 246.771 91.9385C245.759 93.4873 244.376 94.6936 242.778 95.4222C241.181 96.1508 239.431 96.3729 237.725 96.0636C236.02 95.7542 234.426 94.9257 233.122 93.6709C231.819 92.4161 230.857 90.7847 230.346 88.9596C229.834 87.1344 229.792 85.1877 230.225 83.3378C230.658 81.488 231.549 79.808 232.797 78.4864C234.045 77.1647 235.602 76.2536 237.292 75.8553C237.923 75.6971 238.568 75.6199 239.215 75.625C240.437 75.6238 241.647 75.8887 242.776 76.4045C243.905 76.9203 244.931 77.6769 245.795 78.6311C246.66 79.5853 247.346 80.7185 247.815 81.9658C248.283 83.2132 248.525 84.5504 248.526 85.901H248.51Z" stroke="#EDEDED" stroke-width="1.24691" stroke-linecap="round" stroke-linejoin="round"/>
<path d="M248.479 86.6252C248.368 88.3303 247.874 89.9777 247.042 91.4186C246.21 92.8595 245.066 94.0483 243.713 94.8775C242.361 95.7068 240.844 96.1503 239.297 96.168C237.751 96.1857 236.225 95.777 234.858 94.9789C236.661 90.9482 239.177 85.2344 239.177 85.2344L248.479 86.6252Z" stroke="#EDEDED" stroke-width="1.24691" stroke-linecap="round" stroke-linejoin="round"/>
<path d="M248.512 85.9022C248.524 86.153 248.524 86.4044 248.512 86.6552L239.233 85.291L246.252 79.1519C247.72 81.0247 248.523 83.4237 248.512 85.9022V85.9022Z" stroke="#EDEDED" stroke-width="1.24691" stroke-linecap="round" stroke-linejoin="round"/>
<path d="M246.22 79.1507L239.201 85.2898C239.201 85.2898 237.999 79.5937 237.278 75.8553C237.909 75.6971 238.554 75.6199 239.201 75.625C240.531 75.6232 241.846 75.9371 243.057 76.5454C244.267 77.1536 245.346 78.0421 246.22 79.1507Z" fill="#DDDDDD" stroke="#DDDDDD" stroke-width="1.24691" stroke-linecap="round" stroke-linejoin="round"/>
<path d="M259.075 82.1239C260.829 81.4418 259.211 80.4496 260.373 79.9003C262.071 79.1031 262.624 67.4982 255.076 69.8812C249.355 71.6529 253.522 81.9733 256.326 81.0254C257.087 80.7685 257.063 82.9123 259.075 82.1239Z" fill="#F9F9F9" stroke="#DDDDDD" stroke-width="1.24691" stroke-linecap="round" stroke-linejoin="round"/>
<path d="M257.019 73.6172C256.274 75.0966 256.867 76.133 258.085 76.6291C260.128 77.4707 257.091 80.1194 256.426 78.6666C255.697 77.072 259.687 78.1351 258.83 81.714" stroke="#DDDDDD" stroke-width="1.24691" stroke-linecap="round" stroke-linejoin="round"/>
<path d="M258.177 84.4993C258.69 85.8547 259.323 86.0939 260.293 85.7838C261.262 85.4738 261.302 84.7297 261.046 83.6489L258.177 84.4993Z" fill="#F9F9F9" stroke="#EDEDED" stroke-width="1.24691" stroke-linecap="round" stroke-linejoin="round"/>
<path d="M257.354 83.6423C257.819 82.7565 260.559 82.2161 260.943 82.3135C261.328 82.411 261.673 83.6423 261.168 83.9612C260.109 84.4833 258.981 84.8095 257.827 84.9268C257.711 84.8893 257.604 84.8234 257.515 84.7341C257.425 84.6447 257.355 84.5341 257.31 84.4107C257.264 84.2872 257.245 84.154 257.252 84.021C257.26 83.8879 257.295 83.7585 257.354 83.6423Z" fill="#F9F9F9" stroke="#EDEDED" stroke-width="1.24691" stroke-linecap="round" stroke-linejoin="round"/>
<path d="M256.825 81.9958C257.322 81.11 260.27 80.5607 260.647 80.667C261.144 80.7999 261.448 81.9958 260.895 82.3059C259.759 82.8305 258.556 83.1563 257.33 83.2714C257.212 83.2377 257.103 83.175 257.011 83.088C256.919 83.001 256.846 82.892 256.797 82.7691C256.748 82.6463 256.726 82.5129 256.73 82.379C256.735 82.245 256.768 82.114 256.825 81.9958Z" fill="#F9F9F9" stroke="#EDEDED" stroke-width="1.24691" stroke-linecap="round" stroke-linejoin="round"/>
<path d="M247.425 72.8401L249.861 73.0178" stroke="#EDEDED" stroke-width="1.24691" stroke-linecap="round" stroke-linejoin="round"/>
<path d="M252.217 64.6432L253.282 67.2388" stroke="#EDEDED" stroke-width="1.24691" stroke-linecap="round" stroke-linejoin="round"/>
<path d="M260.548 65.3229L259.691 67.2363" stroke="#EDEDED" stroke-width="1.24691" stroke-linecap="round" stroke-linejoin="round"/>
<path d="M219.553 104.439C216.164 111.145 218.848 119.18 222.943 121.368C227.037 123.556 228.728 109.666 229.217 106.158C229.705 102.65 229.713 97.3434 230.066 94.6858C230.419 92.0282 228.159 89.9287 226.677 93.9859C225.194 98.0432 224.489 100.524 224.489 100.524L219.553 104.439Z" fill="#FEBD9D"/>
<path d="M229.215 106.158C229.711 102.614 229.711 97.3433 230.064 94.6858C230.417 92.0282 228.157 89.9287 226.675 93.9859C225.192 98.0432 224.487 100.524 224.487 100.524L219.551 104.439" stroke="#EF8A66" stroke-width="0.935186" stroke-linecap="round" stroke-linejoin="round"/>
<path d="M328.989 78.3457L326.264 116.438L296.425 119.547C298.982 110.573 301.039 101.435 302.587 92.1829C303.26 88.1877 303.869 83.9444 304.334 79.6125L315.327 79.0544L328.989 78.3457Z" fill="#FEBD9D"/>
<path d="M317.771 82.6387C316.553 87.8653 309.879 91.5682 302.635 92.1617C303.308 88.1665 303.917 83.9232 304.382 79.5913L315.375 79.0332C317.098 79.8748 318.108 81.0441 317.771 82.6387Z" fill="#F4A789"/>
<path d="M375.333 119.53V208.161H369.116C369.116 208.161 365.446 192.083 349.645 158.385C349.645 158.385 349.34 159.882 348.723 162.477C347.874 166.074 346.424 171.761 344.365 178.52C340.892 190.145 336.422 201.376 331.016 212.059C319.615 217.459 307.59 221.078 295.287 222.814C294.951 222.814 294.606 222.911 294.262 222.947C282.002 224.621 267.772 224.63 253.333 220.519C244.367 218.008 235.811 213.964 227.973 208.533C228.406 207.754 247.901 165.56 253.974 151.989C254.447 150.934 254.92 149.907 255.4 148.888C261.105 136.831 267.948 127.459 286.425 119.53C290.712 117.705 294.478 116.084 297.779 114.667C309.95 109.449 316.016 106.871 319.734 105.649C322.362 104.787 324.859 103.98 327.226 103.23C349.997 96.0018 361.295 94.3098 370.87 110.459C372.552 113.361 374.044 116.393 375.333 119.53Z" fill="#FED81D"/>
<path d="M370.869 110.459C362.984 109.928 353.065 112.328 347.456 125.979C337.096 151.174 316.648 161.724 301.656 145.575C289.877 132.898 269.806 134.546 255.399 148.888C261.104 136.831 267.947 127.459 286.424 119.53C290.711 117.705 294.477 116.084 297.778 114.667C309.949 109.449 316.015 106.871 319.732 105.649C322.361 104.787 324.858 103.98 327.224 103.23C349.996 96.0018 361.294 94.3098 370.869 110.459Z" fill="#FFE05C"/>
<path d="M375.334 184.208V208.126H369.116C369.116 208.126 365.446 192.048 349.645 158.349C350.551 154.46 351.248 150.713 351.809 147.391C362.017 152.334 362.89 162.796 361.776 168.705C360.743 174.206 365.991 187.689 375.334 184.208Z" fill="#FCC71F"/>
<path d="M290.327 164.433C288.725 173.699 281.746 189.946 269.286 213.156C267.372 216.522 265.197 219.7 262.788 222.652C259.606 222.123 256.45 221.413 253.333 220.526L257.275 208.168C259.511 198.61 263.685 194.349 272.676 192.436C280.656 190.726 273.974 163.742 290.327 164.433Z" fill="#FCC71F"/>
<path d="M261.583 222.252C261.583 222.252 266.447 216.682 270.658 210.628C272.393 208.223 273.958 205.635 275.336 202.893C284.307 183.995 289.326 170.761 290.486 163.206C290.847 160.869 290.838 159.077 290.457 157.831" stroke="#F7AD2B" stroke-width="0.935186" stroke-linecap="round" stroke-linejoin="round"/>
<path d="M353.393 135.265C353.393 135.265 352.968 140.359 351.791 147.428C351.246 150.75 350.533 154.515 349.627 158.386" stroke="#F7AD2B" stroke-width="0.935186" stroke-linecap="round" stroke-linejoin="round"/>
<path d="M257.267 188.273C257.564 209.578 235.569 231.061 223.51 204.697C218.47 193.686 205.882 142.297 206.764 135.263C207.565 129 224.135 115.056 230.938 117.785C230.938 117.785 233.782 126.059 237.692 136.618C242.668 150.057 249.367 167.225 254.078 175.747C256.136 179.532 257.238 183.858 257.267 188.273Z" fill="#FED81D"/>
<path d="M248.512 164.033C245.9 169.747 242.903 176.329 239.971 182.636C237.976 178.606 237.615 172.67 241.862 167.134C247.262 160.109 230.356 147.848 237.695 136.598C240.916 145.315 244.858 155.564 248.512 164.033Z" fill="#FCC71F"/>
<path d="M248.616 163.81C248.616 163.881 248.543 163.951 248.511 164.031C245.899 169.745 242.903 176.327 239.97 182.634L237.222 188.596" stroke="#F7AD2B" stroke-width="0.935186" stroke-linecap="round" stroke-linejoin="round"/>
<path d="M296.795 60.1172C292.788 76.1071 289.223 84.8595 313.894 86.6489C313.894 86.6489 329.55 67.1598 327.419 38.8652C327.419 38.8652 313.469 26.4631 301.386 50.6207C301.386 50.6207 296.955 52.4987 296.45 53.1631C295.945 53.8275 296.282 57.9557 296.795 60.1172Z" fill="#FEBD9D"/>
<path d="M301.389 50.6176C301.389 50.6176 296.958 52.4956 296.453 53.16C295.948 53.8244 296.285 57.9525 296.797 60.114" stroke="#EF8A66" stroke-width="0.935186" stroke-linecap="round" stroke-linejoin="round"/>
<path d="M304.759 54.0448C305.334 54.0448 305.8 53.5291 305.8 52.8931C305.8 52.2571 305.334 51.7415 304.759 51.7415C304.183 51.7415 303.717 52.2571 303.717 52.8931C303.717 53.5291 304.183 54.0448 304.759 54.0448Z" fill="black"/>
<path d="M305.663 43.5758C307.731 41.9901 311.36 51.2208 308.732 51.1854C307.674 51.1854 303.147 45.507 305.663 43.5758Z" fill="black"/>
<path d="M349.645 121.656C348.427 134.802 342.609 140.038 343.739 144.476C344.869 148.914 347.649 147.949 347.649 147.949C347.649 147.949 345.438 155.035 336.953 152.21C336.953 152.21 329.533 164.736 322.53 155.753C316.2 165.312 302.859 167.269 302.45 154.158C302.45 154.158 307.602 155.585 310.23 151.891C312.859 148.197 313.436 142.04 310.583 138.797C307.731 135.555 303.588 132.313 303.324 126.9C303.059 121.488 306.673 111.991 311.921 104.931C311.921 104.931 290.976 98.402 289.43 118.219L285.247 119.991C285.247 119.991 280.784 117.608 280.888 109.644C280.992 101.68 287.571 95.8329 294.734 95.9747C301.897 96.1164 319.181 92.6792 310.759 68.5571C310.759 68.5571 317.634 71.3387 319.429 65.2528C321.224 59.1669 314.998 55.9246 311.416 59.3264C311.416 59.3264 308.484 54.3212 317.177 43.301C316.208 39.8107 312.851 38.8717 314.293 35.3282C315.463 32.4757 322.802 32.4757 328.315 33.7071C329.499 33.967 330.664 34.3223 331.8 34.7701C334.958 36.0107 337.709 38.2656 339.701 41.2458C340.895 43.0089 341.682 45.0676 341.992 47.2431C342.784 46.8833 343.637 46.7141 344.492 46.747C346.223 46.8179 348.339 47.8898 349.092 52.3634C350.189 58.8391 346.175 62.108 343.483 63.6051C342.734 64.0165 341.95 64.3458 341.143 64.5884C341.732 66.6162 342.003 68.7404 341.944 70.8692C341.91 72.2583 341.741 73.6394 341.44 74.9885C340.294 80.0468 337.81 88.8523 338.908 94.9736C339.028 95.7152 339.222 96.4399 339.485 97.1352C341.736 103.212 350.862 108.51 349.645 121.656Z" fill="#BF8228"/>
<path d="M343.45 63.6481C342.701 64.0595 341.917 64.3888 341.11 64.6314C341.11 64.6314 337.352 65.6413 335.862 58.3772C334.668 52.557 337.624 48.6326 341.991 47.2861C342.783 46.9263 343.635 46.7571 344.491 46.79C336.591 54.3996 340.429 60.583 343.45 63.6481Z" fill="#B57724"/>
<path d="M349.645 121.656C348.427 134.802 342.609 140.038 343.739 144.476C344.869 148.914 347.649 147.949 347.649 147.949C347.649 147.949 345.438 155.035 336.953 152.21C336.953 152.21 329.533 164.736 322.53 155.753C316.2 165.312 302.859 167.269 302.45 154.158C302.45 154.158 307.602 155.585 310.23 151.891C312.859 148.197 313.436 142.04 310.583 138.797C307.731 135.555 303.588 132.313 303.324 126.9C303.059 121.488 306.673 111.991 311.921 104.931C311.921 104.931 290.976 98.402 289.43 118.219L285.247 119.991C285.247 119.991 280.784 117.608 280.888 109.644C280.992 101.68 287.571 95.8329 294.734 95.9747C301.897 96.1164 319.181 92.6792 310.759 68.5571C310.759 68.5571 317.634 71.3387 319.429 65.2528C321.224 59.1669 314.998 55.9246 311.416 59.3264C311.416 59.3264 308.484 54.3212 317.177 43.301C316.208 39.8107 312.851 38.8717 314.293 35.3282C315.463 32.4757 322.802 32.4757 328.315 33.7071C324.629 36.2052 322.161 40.1296 324.212 46.2687C329.252 61.3284 327.834 68.5748 323.467 75.0062C319.1 81.4376 314.165 94.4953 318.363 104.931C322.562 115.366 316.392 110.565 318.243 131.214C320.094 151.864 343.723 139.285 342.986 122.462C342.321 107.261 333.98 102.149 338.844 95.0002C338.964 95.7417 339.158 96.4665 339.42 97.1617C341.736 103.212 350.862 108.51 349.645 121.656Z" fill="#B57724"/>
<path d="M311.297 62.9697C313.589 61.3928 315.76 61.5346 317.018 62.5357" stroke="#EF8A66" stroke-width="0.935186" stroke-linecap="round" stroke-linejoin="round"/>
<path d="M311.495 65.4415C314.868 67.0449 315.501 62.2435 312.745 62.1815" stroke="#EF8A66" stroke-width="0.935186" stroke-linecap="round" stroke-linejoin="round"/>
<path d="M328.898 41.4869C332.591 42.7626 338.12 49.1851 338.12 49.1851" stroke="#9B621F" stroke-width="0.935186" stroke-linecap="round" stroke-linejoin="round"/>
<path d="M341.991 47.2916C337.624 48.6293 334.668 52.5625 335.862 58.3827C337.352 65.6468 341.11 64.6369 341.11 64.6369" stroke="#9B621F" stroke-width="0.935186" stroke-linecap="round" stroke-linejoin="round"/>
<path d="M337.184 50.6277C340.566 49.1306 344.604 48.4928 346.142 53.2233C347.681 57.9538 345.429 61.6213 341.992 64.3231" stroke="#9B621F" stroke-width="0.935186" stroke-linecap="round" stroke-linejoin="round"/>
<path d="M320.175 53.5154C327.066 55.8009 335.792 55.1985 335.792 55.1985" stroke="#9B621F" stroke-width="0.935186" stroke-linecap="round" stroke-linejoin="round"/>
<path d="M322.074 66.73C328.091 68.3688 335.695 63.5409 336.897 61.6274" stroke="#9B621F" stroke-width="0.935186" stroke-linecap="round" stroke-linejoin="round"/>
<path d="M335.662 57.0961C336.64 54.1196 339.404 52.1618 341.455 55.1029C343.507 58.0439 340.43 61.1621 337.938 57.911" stroke="#9B621F" stroke-width="0.935186" stroke-linecap="round" stroke-linejoin="round"/>
<path d="M311.929 104.978C317.762 97.3682 322.682 91.2912 320.182 80.3064" stroke="#9B621F" stroke-width="0.935186" stroke-linecap="round" stroke-linejoin="round"/>
<path d="M322.576 155.799C326.109 149.828 320.653 141.058 319.82 135.273C318.986 129.488 318.802 122.233 325.372 114.358" stroke="#9B621F" stroke-width="0.935186" stroke-linecap="round" stroke-linejoin="round"/>
<path d="M331.448 88.3025C336.352 102.095 337.121 104.319 334.461 114.648C331.801 124.977 330.198 130.098 334.461 137.468C339.196 145.636 337.714 148.595 336.945 152.209" stroke="#9B621F" stroke-width="0.935186" stroke-linecap="round" stroke-linejoin="round"/>
<path d="M309.701 58.9333C310.013 60.8113 308.387 62.716 306.079 63.1766C303.771 63.6373 301.648 62.4945 301.336 60.6076C301.023 58.7207 302.65 56.8249 304.957 56.3643C307.265 55.9036 309.388 57.0464 309.701 58.9333Z" fill="#F4AF90"/>
<path d="M372.736 92.6447V202.669H202.179" stroke="#EDEDED" stroke-width="2.49383" stroke-linecap="round" stroke-linejoin="round"/>
<path d="M136.883 155.933C140.553 157.971 145.304 154.162 150.584 149.006L144.863 143.336C144.863 143.336 135.889 152.585 136.883 155.933Z" fill="#675ADE"/>
<path d="M185.8 131.546L172.555 161.391H144.695L140.055 147.058L155.824 131.546H185.8Z" fill="#FEBD9D"/>
<path d="M164.215 131.546L151.171 154.083" stroke="#EF8A66" stroke-width="0.935186" stroke-linecap="round" stroke-linejoin="round"/>
<path d="M159.25 133.874C149.803 139.836 136.886 155.932 136.886 155.932L133.417 163.551L131.398 167.98H62.8577C61.2552 161.593 59.877 153.275 58.8514 146.533C58.0501 141.316 57.5373 137.046 57.329 135.371L57.2409 134.618C55.4941 136.328 54.6448 136.39 54.6448 136.39L51.4397 145.754L51.1433 146.64C39.7654 138.224 18.9486 136.736 18.9486 136.736L21.745 126.291C20.9048 124.144 20.6702 121.767 21.0719 119.47C21.5286 116.857 27.7945 104.738 34.1084 94.5683C36.5979 90.4314 39.359 86.5023 42.3695 82.8129C42.6178 82.5294 42.8743 82.2548 43.1307 81.9979C50.7507 74.2465 63.3785 75.3716 71.6796 76.2043C72.9136 76.3283 74.0834 76.4169 75.1731 76.4701C77.626 76.6127 80.0839 76.6127 82.5367 76.4701C84.5479 76.3549 85.6536 76.1866 85.6536 76.1866C85.91 74.8932 86.1504 73.529 86.3908 72.0319C87.8892 62.3493 88.7305 49.4245 87.3924 40.9291L108.482 51.338C108.842 55.5725 110.252 64.8652 111.222 70.9777C111.767 74.3971 112.159 76.8244 112.159 76.8244C113.858 76.4789 115.461 76.1689 116.967 75.8854C138.377 71.8724 143.889 73.3784 149.819 84.9212C149.979 85.2224 150.131 85.5413 150.291 85.878C153.945 93.8508 156.437 109.796 157.823 121.065C158.809 128.47 159.25 133.874 159.25 133.874Z" fill="#675ADE"/>
<path d="M159.245 133.874C149.982 139.73 137.363 155.339 136.89 155.915C137.058 155.525 139.814 149.218 140.095 147.056C140.375 144.894 139.398 138.499 137.883 132.483L157.915 121.1C158.804 128.471 159.245 133.874 159.245 133.874Z" fill="#857BE3"/>
<path d="M87.918 137.327C87.7657 145.813 69.7854 147.009 58.8722 146.54C58.071 141.322 57.5582 137.052 57.3498 135.378L57.2617 134.625C61.2276 130.176 64.5056 125.038 66.965 119.414C73.3751 124.251 65.1541 129.221 64.8416 131.551C63.9923 137.938 88.1343 125.208 87.918 137.327Z" fill="#857BE3"/>
<path d="M150.368 85.9161C144.118 83.5154 137.099 83.5952 132.236 92.1792C121.282 111.509 100.722 126.586 80.1536 103.766C77.3411 100.563 74.2642 97.6563 70.9631 95.0849C58.808 85.8896 48.5278 87.7499 34.1532 94.5622C36.6427 90.4253 39.4038 86.4962 42.4142 82.8068C42.6626 82.5233 42.919 82.2487 43.1754 81.9918C50.7954 74.2404 63.4233 75.3655 71.7243 76.1982C72.9583 76.3222 74.1281 76.4108 75.2178 76.4639C77.6707 76.6066 80.1286 76.6066 82.5814 76.4639C84.5926 76.3488 85.6983 76.1805 85.6983 76.1805C85.9547 74.8871 86.1951 73.5229 86.4355 72.0258C87.9339 62.3432 88.7752 49.4184 87.4371 40.923L108.526 51.3319C108.887 55.5664 110.297 64.8591 111.267 70.9716C111.811 74.391 112.204 76.8183 112.204 76.8183C113.903 76.4728 115.505 76.1628 117.012 75.8793C138.421 71.8663 143.934 73.3723 149.863 84.9151C150.056 85.2606 150.208 85.5795 150.368 85.9161Z" fill="#857BE3"/>
<path d="M117.043 75.924C116.979 81.9125 116.394 92.8264 114.038 100.542C110.993 110.553 107.404 106.486 103.462 102.536C99.8959 98.9389 86.8995 86.9708 75.2251 76.491C77.6779 76.6336 80.1358 76.6336 82.5887 76.491C84.5998 76.3758 85.7056 76.2075 85.7056 76.2075C85.962 74.9142 86.2024 73.5499 86.4427 72.0528C94.9121 71.4416 105.072 70.8392 111.282 70.9986C111.827 74.4181 112.219 76.8454 112.219 76.8454C113.902 76.4821 115.505 76.2075 117.043 75.924Z" fill="#675ADE"/>
<path d="M108.741 98.8152C108.741 98.8152 90.6969 85.2437 82.5882 76.4825C84.5993 76.3673 85.7051 76.199 85.7051 76.199C87.6361 66.3925 88.9822 50.7304 87.4438 40.9415L101.153 47.7007L108.533 51.3505C108.797 54.4776 109.647 60.4129 110.456 65.7458C111.353 71.6457 112.211 76.8368 112.211 76.8368C112.868 94.0404 108.741 98.8152 108.741 98.8152Z" fill="#FEBD9D"/>
<path d="M136.887 155.936C137.055 155.546 139.811 149.238 140.092 147.077C140.372 144.915 139.395 138.519 137.88 132.504C137.8 132.194 137.72 131.875 137.632 131.565" stroke="#675ADE" stroke-width="0.935186" stroke-linecap="round" stroke-linejoin="round"/>
<path d="M110.447 65.7678C96.2089 66.7334 97.8115 49.8133 97.9316 49.3881L101.137 47.7227L108.516 51.3724C108.789 54.4995 109.638 60.4349 110.447 65.7678Z" fill="#F4A789"/>
<path d="M18.9958 136.719C18.5952 138.021 18.5952 139.439 27.5292 142.22L28.9074 135.745C28.9074 135.745 20.7826 133.318 18.9958 136.719Z" fill="#675ADE"/>
<path d="M23.89 133.31C21.7907 140.876 14.4671 166.211 14.4671 166.211C12.48 175.504 37.4072 181.572 46.2772 165.786L51.1569 140.371C43.0926 134.569 33.4458 132.071 23.89 133.31Z" fill="#FEBD9D"/>
<path d="M64.8749 123.692C64.8438 123.742 64.817 123.795 64.7948 123.851C63.7371 125.72 62.5593 127.625 61.2773 129.592L61.1891 129.725C59.9871 131.458 58.6751 133.095 57.2629 134.623C55.5162 136.333 54.6668 136.395 54.6668 136.395L51.1894 146.627C50.8368 146.37 50.4762 146.113 50.0997 145.865C43.7537 141.613 35.0199 139.274 28.4656 138.034C26.3102 137.626 24.3872 137.343 22.8567 137.148C20.501 136.838 19.0427 136.732 19.0427 136.732L21.8391 126.287C20.999 124.14 20.7644 121.763 21.1661 119.466C21.6228 116.853 27.8887 104.734 34.2026 94.5645C36.6921 90.4276 39.4532 86.4985 42.4636 82.809C42.712 82.5255 42.9684 82.2509 43.2248 81.994C54.0258 76.4042 68.064 77.7773 70.8283 93.8912C70.9004 94.2898 70.9645 94.6885 71.0126 95.0871C72.551 105.815 70.1552 114.328 64.8749 123.692Z" fill="#857BE3"/>
<path d="M70.9632 95.0871C58.808 85.8918 48.5278 87.7521 34.1532 94.5644C36.6427 90.4275 39.4038 86.4985 42.4142 82.809C42.6626 82.5255 42.919 82.2509 43.1754 81.994C53.9764 76.4042 68.0145 77.7773 70.7789 93.8912C70.851 94.3164 70.9151 94.715 70.9632 95.0871Z" fill="#675ADE"/>
<path d="M26.2296 128.498C33.7535 128.498 41.109 131.9 42.351 132.547" stroke="#675ADE" stroke-width="0.935186" stroke-linecap="round" stroke-linejoin="round"/>
<path d="M57.2617 134.624C58.6738 133.096 59.9859 131.459 61.1879 129.725L61.276 129.592C62.5425 127.751 63.7168 125.835 64.7936 123.852C64.8158 123.796 64.8426 123.743 64.8737 123.692C65.723 122.107 66.4281 120.645 66.965 119.414C67.4057 118.457 67.7262 117.642 67.9505 117.04" stroke="#857BE3" stroke-width="0.935186" stroke-linecap="round" stroke-linejoin="round"/>
<path d="M122.399 127.224C122.688 131.414 120.46 132.486 120.46 132.486C120.765 142.673 118.056 147.546 113.553 148.839C109.05 150.132 97.4159 152.861 97.4159 152.861C96.21 153.403 95.0468 154.055 93.9384 154.81C92.6404 155.625 91.0298 156.67 89.1309 157.91C83.3457 161.649 74.2354 165.139 63.4103 171.446C44.2281 182.626 30.5586 176.567 29.6452 164.705C27.9946 142.992 52.9378 141.575 62.0482 139.901C68.6506 138.678 78.8747 135.781 85.2127 134.16C87.6165 133.558 89.4193 133.133 90.2686 133.044C93.3134 132.743 99.6274 129.058 110.709 125.204C121.79 121.351 130.74 119.118 130.74 121.82C130.74 124.522 122.399 127.224 122.399 127.224Z" fill="#FEBD9D"/>
<path d="M110.723 125.208C121.797 121.336 130.755 119.122 130.755 121.824C130.755 124.525 122.366 127.254 122.366 127.254C122.654 131.444 120.427 132.516 120.427 132.516C120.731 142.703 118.023 147.576 113.52 148.869" stroke="#EF8A66" stroke-width="0.935186" stroke-linecap="round" stroke-linejoin="round"/>
<path d="M34.2915 150.01C39.0991 144.863 46.7992 142.64 53.3054 141.382" stroke="#EF8A66" stroke-width="0.935186" stroke-linecap="round" stroke-linejoin="round"/>
<path d="M93.9368 154.808C92.6388 155.623 91.0282 156.668 89.1293 157.909C84.6662 152.407 82.3506 143.885 85.2111 134.132C87.6149 133.53 89.4177 133.104 90.267 133.016C88.1998 139.261 87.8152 149.449 93.9368 154.808Z" fill="black"/>
<path d="M122.4 127.225L115.549 129.679" stroke="#EF8A66" stroke-width="0.935186" stroke-linecap="round" stroke-linejoin="round"/>
<path d="M120.46 132.484L116.245 134.176" stroke="#EF8A66" stroke-width="0.935186" stroke-linecap="round" stroke-linejoin="round"/>
<path d="M116.702 139.066L120.292 137.985" stroke="#EF8A66" stroke-width="0.935186" stroke-linecap="round" stroke-linejoin="round"/>
<path d="M92.3165 145.58C92.3165 146.847 91.9767 148.085 91.3402 149.138C90.7036 150.191 89.7989 151.012 88.7403 151.497C87.6817 151.982 86.5169 152.109 85.3932 151.862C84.2694 151.615 83.2372 151.005 82.427 150.109C81.6168 149.213 81.0651 148.072 80.8416 146.829C80.618 145.587 80.7327 144.299 81.1712 143.129C81.6097 141.959 82.3522 140.958 83.3049 140.254C84.2576 139.551 85.3776 139.175 86.5234 139.175C88.0598 139.175 89.5333 139.85 90.6197 141.051C91.7061 142.252 92.3165 143.881 92.3165 145.58Z" fill="white" stroke="black" stroke-width="1.24691" stroke-linecap="round" stroke-linejoin="round"/>
<path d="M172.557 27.0482V159.29H2V27.0482C1.99895 25.2966 2.31009 23.562 2.91564 21.9434C3.52119 20.3248 4.40928 18.8541 5.52917 17.6151C6.64905 16.3761 7.97877 15.3933 9.44236 14.7227C10.9059 14.0522 12.4747 13.707 14.059 13.707H160.498C162.082 13.707 163.651 14.0522 165.114 14.7227C166.578 15.3933 167.908 16.3761 169.027 17.6151C170.147 18.8541 171.035 20.3248 171.641 21.9434C172.247 23.562 172.558 25.2966 172.557 27.0482Z" stroke="#DDDDDD" stroke-width="2.49383" stroke-linecap="round" stroke-linejoin="round"/>
<path d="M172.557 27.0482V27.6417H2V27.0482C1.99895 25.2966 2.31009 23.562 2.91564 21.9434C3.52119 20.3248 4.40928 18.8541 5.52917 17.6151C6.64905 16.3761 7.97877 15.3933 9.44236 14.7227C10.9059 14.0522 12.4747 13.707 14.059 13.707H160.498C162.082 13.707 163.651 14.0522 165.114 14.7227C166.578 15.3933 167.908 16.3761 169.027 17.6151C170.147 18.8541 171.035 20.3248 171.641 21.9434C172.247 23.562 172.558 25.2966 172.557 27.0482Z" stroke="#DDDDDD" stroke-width="2.49383" stroke-linecap="round" stroke-linejoin="round"/>
<path d="M149.473 20.6769C149.473 21.157 149.344 21.6263 149.103 22.0254C148.862 22.4246 148.519 22.7357 148.118 22.9194C147.717 23.1031 147.275 23.1512 146.849 23.0575C146.423 22.9639 146.032 22.7327 145.725 22.3932C145.418 22.0538 145.209 21.6213 145.124 21.1504C145.04 20.6796 145.083 20.1916 145.249 19.748C145.416 19.3045 145.697 18.9254 146.058 18.6587C146.419 18.392 146.843 18.2496 147.278 18.2496C147.566 18.2496 147.851 18.3124 148.118 18.4344C148.384 18.5564 148.626 18.7352 148.83 18.9606C149.034 19.186 149.196 19.4535 149.306 19.748C149.416 20.0425 149.473 20.3581 149.473 20.6769Z" fill="#DDDDDD"/>
<path d="M154.433 23.1042C155.645 23.1042 156.628 22.0175 156.628 20.6769C156.628 19.3364 155.645 18.2496 154.433 18.2496C153.22 18.2496 152.237 19.3364 152.237 20.6769C152.237 22.0175 153.22 23.1042 154.433 23.1042Z" fill="#EDEDED"/>
<path d="M163.782 20.6769C163.782 21.1574 163.653 21.627 163.411 22.0264C163.169 22.4257 162.826 22.7368 162.424 22.9203C162.023 23.1037 161.581 23.1513 161.155 23.0569C160.729 22.9625 160.338 22.7305 160.031 22.3901C159.724 22.0498 159.516 21.6164 159.432 21.145C159.348 20.6736 159.393 20.1853 159.56 19.7419C159.727 19.2985 160.01 18.9201 160.372 18.6544C160.734 18.3888 161.16 18.2479 161.594 18.2496C161.882 18.2496 162.167 18.3125 162.433 18.4346C162.699 18.5567 162.94 18.7356 163.144 18.9611C163.347 19.1866 163.508 19.4543 163.617 19.7487C163.727 20.0432 163.783 20.3586 163.782 20.6769Z" fill="#DDDDDD"/>
<path d="M184.397 91.3771C191.554 117.445 191.583 134.48 191.583 134.48L167.925 139.995C167.925 139.995 161.515 114.03 160.321 98.3315C160.321 98.3315 159.423 94.7142 160.989 94.1698C162.554 93.6253 184.397 91.3771 184.397 91.3771Z" fill="#F9F9F9" stroke="#DDDDDD" stroke-width="1.24691" stroke-linecap="round" stroke-linejoin="round"/>
<path d="M187.912 122.124C188.517 126.138 192.775 121.048 192.051 117.558C191.327 114.069 187.207 117.471 187.912 122.124Z" fill="#FEBD9D" stroke="#EF8A66" stroke-width="0.935186" stroke-linecap="round" stroke-linejoin="round"/>
<path d="M186.495 116.797C187.124 120.817 191.981 115.644 191.235 112.149C190.488 108.654 185.77 112.156 186.495 116.797Z" fill="#FEBD9D" stroke="#EF8A66" stroke-width="0.935186" stroke-linecap="round" stroke-linejoin="round"/>
<path d="M185.666 112.797C186.304 116.807 191.549 111.581 190.776 108.098C190.003 104.616 184.929 108.149 185.666 112.797Z" fill="#FEBD9D" stroke="#EF8A66" stroke-width="0.935186" stroke-linecap="round" stroke-linejoin="round"/>
<path d="M184.295 107.904C184.897 111.544 190.368 106.707 189.621 103.551C188.873 100.395 183.595 103.697 184.295 107.904Z" fill="#FEBD9D" stroke="#EF8A66" stroke-width="0.935186" stroke-linecap="round" stroke-linejoin="round"/>
<path d="M125.252 16.1205C124.555 22.5253 116.807 26.2814 116.807 26.2814L95.3087 47.0284C93.1052 50.9173 87.1038 52.8751 83.45 49.6239C81.3106 47.7282 79.9805 44.0518 80.7017 37.9305C80.1034 37.9308 79.5183 37.7367 79.019 37.3724C76.5431 35.6804 75.0127 30.2855 78.7306 23.8807C78.4661 24.1641 73.5143 29.4882 68.4183 27.8759C67.5419 27.6171 66.7252 27.1555 66.0222 26.5218C65.3191 25.888 64.7457 25.0965 64.3399 24.1996C62.7374 20.5764 63.2983 14.5348 67.8735 6.25191C71.1266 0.343182 75.6537 -0.719854 79.5318 0.38748C83.9227 1.62769 87.4804 5.61409 87.4804 8.51088C88.4491 7.19644 89.5729 6.03148 90.8216 5.04713C92.5363 3.72719 94.6597 2.83247 96.5586 4.10812C96.5586 4.10812 103.241 0.130569 107.039 2.61985C111.767 5.70267 110.725 7.84647 115.324 8.1831C118.746 8.43114 124.138 9.38789 125.124 13.6755C125.311 14.4732 125.355 15.3041 125.252 16.1205Z" fill="#DD6819"/>
<path d="M87.4785 8.51582L78.7447 23.8679C78.1209 24.5131 77.454 25.1054 76.7496 25.6396C74.7865 27.1456 71.6455 28.8642 68.4405 27.8543C67.5641 27.5954 66.7474 27.1339 66.0443 26.5001C65.3412 25.8664 64.7679 25.0749 64.362 24.1779C74.3137 23.9476 77.8152 20.8737 75.772 14.8232C73.873 9.18907 71.9019 2.111 79.554 0.365845C82.5475 1.19002 85.149 3.23401 86.8375 6.08854C87.2358 6.82348 87.4566 7.65934 87.4785 8.51582Z" fill="#CC5E0D"/>
<path d="M125.252 16.1206C124.554 22.5254 116.806 26.2815 116.806 26.2815L95.3084 47.0284C93.1049 50.9174 87.1034 52.8752 83.4497 49.624C82.1862 46.2741 81.8759 42.5781 82.5601 39.0283C83.2444 35.4785 84.8907 32.2434 87.2797 29.754C91.6867 25.3247 88.4576 22.0204 88.8822 16.1914C89.3069 10.3624 98.9541 1.3886 105.861 9.44113C111.278 15.7574 121.47 8.12119 125.163 13.6756C125.338 14.4763 125.368 15.3071 125.252 16.1206Z" fill="#CC5E0D"/>
<path d="M112.072 58.5104C102.409 57.412 92.6015 46.3298 92.6015 46.3298C88.9157 50.9717 81.6482 44.0354 85.2459 38.2595C87.6016 34.4592 91.2874 36.7181 92.1848 38.791C93.6799 37.7238 94.7763 36.0957 95.2724 34.2062C95.7685 32.3166 95.631 30.2925 94.8851 28.5061C94.0941 26.3128 93.7521 23.9531 93.8835 21.5964C97.1527 16.104 105.822 14.8461 105.822 14.8461C107.104 16.3398 108.662 17.5092 110.391 18.2737C112.12 19.0383 113.978 19.38 115.838 19.2754C115.838 19.2754 118.811 25.6979 121.231 32.2268C121.279 32.3685 121.343 32.528 121.391 32.6697C122.072 34.53 122.705 36.3903 123.202 38.0912C123.25 38.2595 123.29 38.4101 123.338 38.5696C123.736 39.9129 124.03 41.2909 124.219 42.6889C124.997 49.7138 121.727 59.6532 112.072 58.5104Z" fill="#FEBD9D"/>
<path d="M116.083 29.2929C116.083 29.5206 116.144 29.7433 116.258 29.9327C116.373 30.1221 116.535 30.2697 116.726 30.3568C116.916 30.444 117.125 30.4668 117.328 30.4224C117.53 30.3779 117.715 30.2682 117.861 30.1072C118.007 29.9461 118.106 29.7409 118.146 29.5175C118.186 29.2941 118.165 29.0626 118.087 28.8522C118.008 28.6417 117.874 28.4619 117.703 28.3353C117.532 28.2088 117.33 28.1412 117.124 28.1412C116.849 28.1436 116.585 28.2656 116.39 28.4811C116.195 28.6966 116.085 28.9881 116.083 29.2929Z" fill="black"/>
<path d="M110.724 31.6045C111.3 31.6045 111.766 31.0889 111.766 30.4529C111.766 29.8169 111.3 29.3013 110.724 29.3013C110.149 29.3013 109.683 29.8169 109.683 30.4529C109.683 31.0889 110.149 31.6045 110.724 31.6045Z" fill="black"/>
<path d="M109.502 38.25C111.59 39.4076 113.906 39.9709 116.241 39.8889C116.241 39.8889 115.792 44.203 112.443 43.0514C109.518 42.0504 109.502 38.25 109.502 38.25Z" fill="white" stroke="#EF8A66" stroke-width="0.935186" stroke-linecap="round" stroke-linejoin="round"/>
<path d="M106.196 27.0705C106.581 28.4879 111.396 27.0705 110.867 24.7672C110.339 22.464 105.643 25.1039 106.196 27.0705Z" fill="black"/>
<path d="M114.381 24.2178C114.308 25.7592 119.236 25.8655 119.236 24.5367C119.236 23.3319 114.509 21.7285 114.381 24.2178Z" fill="black"/>
<path d="M80.6999 37.9298C81.2966 33.57 83.2048 29.5598 86.1164 26.5464" stroke="#9E4503" stroke-width="0.935186" stroke-linecap="round" stroke-linejoin="round"/>
<path d="M96.5559 4.09534C95.0415 5.43299 92.7739 9.7826 91.8925 11.7404" stroke="#9E4503" stroke-width="0.935186" stroke-linecap="round" stroke-linejoin="round"/>
<path d="M95.2134 16.1288C97.0002 10.8668 100.438 8.49265 102.048 10.5124C103.659 12.5322 105.822 14.8355 105.822 14.8355" stroke="#9E4503" stroke-width="0.935186" stroke-linecap="round" stroke-linejoin="round"/>
<path d="M115.838 19.3178C117.841 19.2292 119.748 16.9703 120.325 15.6592" stroke="#9E4503" stroke-width="0.935186" stroke-linecap="round" stroke-linejoin="round"/>
<path d="M75.747 22.9162C68.3593 24.1918 64.7136 12.0997 70.715 2.54126" stroke="#9E4503" stroke-width="0.935186" stroke-linecap="round" stroke-linejoin="round"/>
<path d="M83.1501 11.744C84.6965 7.31469 79.5364 0.165733 76.74 5.07344C73.5349 10.6898 78.2143 18.14 83.1501 17.4756" stroke="#9E4503" stroke-width="0.935186" stroke-linecap="round" stroke-linejoin="round"/>
<path d="M78.7449 23.8646C80.5136 18.0539 83.5072 12.7917 87.4786 8.51257C87.4786 8.51257 85.2351 13.5443 86.8777 17.1232C84.0266 19.1559 81.3089 21.4086 78.7449 23.8646Z" fill="#857BE3"/>
<path d="M86.1201 42.051C87.6104 39.1366 90.1985 39.296 91.5607 41.7498" stroke="#EF8A66" stroke-width="0.935186" stroke-linecap="round" stroke-linejoin="round"/>
<path d="M91.0134 40.9704C87.9445 40.0845 87.9365 44.6378 91.1977 43.9912" stroke="#EF8A66" stroke-width="0.935186" stroke-linecap="round" stroke-linejoin="round"/>
<path d="M113.305 28.4647C113.257 31.1223 115.18 32.646 116.446 33.3813C117.712 34.1166 117.295 36.0389 117.207 36.3224" stroke="black" stroke-width="0.935186" stroke-linecap="round" stroke-linejoin="round"/>
<path d="M92.6081 46.3654C93.0997 45.6634 93.5089 44.8954 93.826 44.0798" stroke="#EF8A66" stroke-width="0.935186" stroke-linecap="round" stroke-linejoin="round"/>
<path d="M106.487 37.3775C105.686 39.0607 103.226 39.3707 100.878 38.0862C98.5302 36.8017 97.3043 34.3833 98.0735 32.7001C98.8427 31.017 101.335 30.7069 103.682 32.0003C106.03 33.2937 107.256 35.7298 106.487 37.3775Z" fill="#F4AF90"/>
<path d="M123.334 38.6015C122.831 38.8584 122.273 38.9524 121.724 38.8724C121.175 38.7924 120.658 38.5418 120.233 38.1497C119.071 36.8652 119.511 34.2607 121.226 32.2587C121.274 32.4004 121.338 32.5599 121.386 32.7016C122.068 34.5619 122.701 36.4223 123.197 38.1231C123.245 38.2914 123.285 38.4421 123.334 38.6015Z" fill="#F4AF90"/>
<path d="M137.717 93.4639L159.218 94.1961C159.807 94.2162 160.302 94.6465 160.404 95.2276L167.957 138.44C168.102 139.271 167.399 140.003 166.563 139.891L145.084 137.016C144.549 136.944 144.121 136.537 144.023 136.006L136.448 94.9363C136.304 94.1529 136.921 93.4368 137.717 93.4639Z" fill="#F9F9F9" stroke="#DDDDDD" stroke-width="1.24691"/>
</svg>
