<svg width="73" height="85" viewBox="0 0 73 85" fill="none" xmlns="http://www.w3.org/2000/svg">
<path fill-rule="evenodd" clip-rule="evenodd" d="M42.2178 31.6042C36.073 31.6304 31.0997 36.6198 31.0997 42.7708C31.0997 48.9219 36.073 53.9113 42.2178 53.9375V31.6042Z" fill="#199AFF"/>
<path fill-rule="evenodd" clip-rule="evenodd" d="M42.218 31.6042C48.3629 31.6303 53.3362 36.6198 53.3362 42.7708C53.3362 48.9219 48.3629 53.9114 42.218 53.9375V31.6042Z" fill="#2275FF"/>
<rect x="11.8781" y="12.6416" width="5.05665" height="18.541" rx="2.52832" transform="rotate(-45 11.8781 12.6416)" fill="#FFEBBE"/>
<rect x="69.9151" y="8.84915" width="5.05665" height="18.541" rx="2.52832" transform="rotate(45 69.9151 8.84915)" fill="#FFD87C"/>
<path d="M42.218 0C41.5412 0.131007 40.9227 0.578843 40.6439 1.34351L38.7077 6.65365C37.9973 8.60203 36.1438 9.92081 34.0413 9.97393L27.8564 10.1302C25.768 10.1829 25.0039 12.8601 26.7589 13.9755L31.0321 16.6911C32.9939 17.9379 33.8439 20.3374 33.0948 22.5143L31.3552 27.5697C30.6949 29.4884 32.9162 31.1169 34.5951 29.9451L39.6944 26.386C40.4562 25.8542 41.3295 25.5519 42.218 25.4789V0Z" fill="#FFC43B"/>
<path d="M42.2179 0C42.8946 0.131007 43.5132 0.578843 43.792 1.34351L45.7282 6.65365C46.4386 8.60203 48.2921 9.92081 50.3946 9.97393L56.5795 10.1302C58.6679 10.1829 59.432 12.8601 57.6769 13.9755L53.4038 16.6911C51.442 17.9379 50.592 20.3374 51.3411 22.5143L53.0807 27.5697C53.7409 29.4884 51.5197 31.1169 49.8408 29.9451L44.7415 26.386C43.9796 25.8542 43.1064 25.5519 42.2179 25.4789V0Z" fill="#FFA433"/>
<path fill-rule="evenodd" clip-rule="evenodd" d="M42.218 61.7317C31.572 61.5932 22.9808 52.2138 22.9808 40.6639C22.9808 40.6639 24.2515 31.604 17.4766 31.604C10.7018 31.604 11.878 40.6639 11.878 40.6639C11.878 51.7316 16.9821 61.5297 24.6744 67.5346V81.7491C24.6744 83.1455 25.8114 84.2775 27.2147 84.2775H42.218V61.7317Z" fill="#199AFF"/>
<path fill-rule="evenodd" clip-rule="evenodd" d="M42.218 61.7317C52.8639 61.5932 61.4551 52.2138 61.4551 40.6639C61.4551 40.6639 60.1844 31.604 66.9593 31.604C73.7341 31.604 72.5579 40.6639 72.5579 40.6639C72.5579 51.7316 67.4538 61.5297 59.7615 67.5346V81.7491C59.7615 83.1455 58.6245 84.2775 57.2212 84.2775H42.218V61.7317Z" fill="#2275FF"/>
</svg>
