<svg width="128" height="95" viewBox="0 0 128 95" fill="none" xmlns="http://www.w3.org/2000/svg">
<g clip-path="url(#clip0_117_1379)">
<rect x="0.718689" y="53.0725" width="37.0665" height="27.7999" rx="2.52726" fill="#FED402"/>
<rect x="7.4581" y="53.0725" width="37.0665" height="27.7999" rx="2.52726" fill="#FEDF30"/>
<g clip-path="url(#clip1_117_1379)">
<circle cx="19.2519" cy="65.2877" r="6.73936" fill="#26A6FE"/>
<mask id="mask0_117_1379" style="mask-type:alpha" maskUnits="userSpaceOnUse" x="12" y="58" width="14" height="15">
<circle cx="19.2519" cy="65.2877" r="6.73936" fill="#60B7FF"/>
</mask>
<g mask="url(#mask0_117_1379)">
<circle cx="24.7276" cy="65.709" r="6.73936" fill="#60B7FF"/>
</g>
</g>
<path d="M8.72168 77.924C8.72168 74.4346 11.5504 71.6059 15.0398 71.6059H23.464C26.9534 71.6059 29.7822 74.4346 29.7822 77.924V86.7695H8.72168V77.924Z" fill="#60B7FF"/>
<mask id="mask1_117_1379" style="mask-type:alpha" maskUnits="userSpaceOnUse" x="8" y="71" width="22" height="16">
<path d="M8.72168 77.924C8.72168 74.4346 11.5504 71.6059 15.0398 71.6059H23.464C26.9534 71.6059 29.7822 74.4346 29.7822 77.924V86.7695H8.72168V77.924Z" fill="#8AC9FE"/>
</mask>
<g mask="url(#mask1_117_1379)">
<path d="M14.1973 77.924C14.1973 74.4346 17.026 71.6059 20.5154 71.6059H28.9396C32.4291 71.6059 35.2578 74.4346 35.2578 77.924V86.7695H14.1973V77.924Z" fill="#8AC9FE"/>
</g>
</g>
<g clip-path="url(#clip2_117_1379)">
<rect x="47.8943" y="3.79083" width="37.0665" height="27.7999" rx="2.52726" fill="#6E61B6"/>
<rect x="54.6335" y="3.79077" width="30.3271" height="27.7999" rx="2.52726" fill="#8379C1"/>
<g clip-path="url(#clip3_117_1379)">
<circle cx="66.4273" cy="16.006" r="6.73936" fill="#F3D959"/>
<mask id="mask2_117_1379" style="mask-type:alpha" maskUnits="userSpaceOnUse" x="59" y="9" width="15" height="14">
<circle cx="66.4273" cy="16.006" r="6.73936" fill="#EBDC84"/>
</mask>
<g mask="url(#mask2_117_1379)">
<circle cx="71.9031" cy="16.4272" r="6.73936" fill="#F0E5A3"/>
</g>
</g>
<path d="M55.8971 28.6422C55.8971 25.1528 58.7259 22.3241 62.2153 22.3241H70.6395C74.1289 22.3241 76.9576 25.1528 76.9576 28.6422V37.4877H55.8971V28.6422Z" fill="#FEDF30"/>
<mask id="mask3_117_1379" style="mask-type:alpha" maskUnits="userSpaceOnUse" x="55" y="22" width="22" height="16">
<path d="M55.8971 28.6422C55.8971 25.1528 58.7259 22.3241 62.2153 22.3241H70.6395C74.1289 22.3241 76.9576 25.1528 76.9576 28.6422V37.4877H55.8971V28.6422Z" fill="#FEE97D"/>
</mask>
<g mask="url(#mask3_117_1379)">
<path d="M61.3728 28.6422C61.3728 25.1528 64.2016 22.324 67.691 22.324H76.1152C79.6046 22.324 82.4333 25.1528 82.4333 28.6422V37.4876H61.3728V28.6422Z" fill="#FEED95"/>
</g>
</g>
<g clip-path="url(#clip4_117_1379)">
<rect x="20.5154" y="27.7999" width="44.2271" height="32.8544" rx="2.52726" fill="#0ED290"/>
<mask id="mask4_117_1379" style="mask-type:alpha" maskUnits="userSpaceOnUse" x="20" y="27" width="45" height="34">
<rect x="20.5154" y="27.7999" width="44.2271" height="32.8544" rx="2.52726" fill="#0ED290"/>
</mask>
<g mask="url(#mask4_117_1379)">
<rect x="27.6761" y="27.7999" width="44.2271" height="32.8544" rx="2.52726" fill="#05E39C"/>
</g>
<circle cx="42.8397" cy="42.5422" r="8.4242" fill="#D8ECFE"/>
<mask id="mask5_117_1379" style="mask-type:alpha" maskUnits="userSpaceOnUse" x="34" y="34" width="18" height="17">
<circle cx="42.8397" cy="42.5422" r="8.4242" fill="#EAF6FF"/>
</mask>
<g mask="url(#mask5_117_1379)">
<circle cx="47.473" cy="42.5422" r="8.4242" fill="#EAF6FF"/>
</g>
<path d="M30.6246 56.4421C30.6246 52.4875 33.8305 49.2816 37.7852 49.2816H47.8942C51.8489 49.2816 55.0548 52.4875 55.0548 56.4421V65.7088H30.6246V56.4421Z" fill="#C4E2FF"/>
<mask id="mask6_117_1379" style="mask-type:alpha" maskUnits="userSpaceOnUse" x="30" y="49" width="26" height="17">
<path d="M30.6246 56.4421C30.6246 52.4875 33.8305 49.2816 37.7852 49.2816H47.8942C51.8489 49.2816 55.0548 52.4875 55.0548 56.4421V65.7088H30.6246V56.4421Z" fill="#D8ECFE"/>
</mask>
<g mask="url(#mask6_117_1379)">
<path d="M37.7851 56.4422C37.7851 52.4875 40.991 49.2816 44.9457 49.2816H55.0548C59.0094 49.2816 62.2153 52.4875 62.2153 56.4422V65.7088H37.7851V56.4422Z" fill="#D8ECFE"/>
</g>
</g>
<g clip-path="url(#clip5_117_1379)">
<rect x="47.8943" y="56.8633" width="29.4847" height="19.7969" rx="0.84242" fill="#FED2A4"/>
<mask id="mask7_117_1379" style="mask-type:alpha" maskUnits="userSpaceOnUse" x="47" y="56" width="31" height="21">
<rect x="47.8943" y="56.8633" width="29.4847" height="19.7969" rx="0.84242" fill="#FED2A4"/>
</mask>
<g mask="url(#mask7_117_1379)">
<rect x="55.476" y="56.8633" width="29.4847" height="19.7969" rx="0.84242" fill="#FFE5C2"/>
</g>
<path d="M64.2628 67.4844C63.7171 67.1572 63.7171 66.3665 64.2628 66.0393L69.9957 62.6021C70.5572 62.2655 71.2713 62.67 71.2713 63.3246L71.2713 70.199C71.2713 70.8537 70.5572 71.2582 69.9957 70.9216L64.2628 67.4844Z" fill="#6E61B6"/>
<rect x="53.3699" y="61.9178" width="12.6363" height="9.26662" rx="0.84242" fill="#6E61B6"/>
<mask id="mask8_117_1379" style="mask-type:alpha" maskUnits="userSpaceOnUse" x="53" y="61" width="14" height="11">
<rect x="53.3699" y="61.9178" width="12.6363" height="9.26662" rx="0.84242" fill="#8379C1"/>
</mask>
<g mask="url(#mask8_117_1379)">
<rect x="57.5821" y="61.9178" width="12.6363" height="9.26662" rx="0.84242" fill="#8379C1"/>
</g>
</g>
<defs>
<clipPath id="clip0_117_1379">
<rect width="43.8059" height="27.7999" fill="white" transform="translate(0.718689 53.0725)"/>
</clipPath>
<clipPath id="clip1_117_1379">
<rect width="13.4787" height="13.4787" fill="white" transform="translate(12.5125 58.5483)"/>
</clipPath>
<clipPath id="clip2_117_1379">
<rect width="37.0665" height="27.7999" fill="white" transform="translate(47.8943 3.79083)"/>
</clipPath>
<clipPath id="clip3_117_1379">
<rect width="13.4787" height="13.4787" fill="white" transform="translate(59.688 9.26666)"/>
</clipPath>
<clipPath id="clip4_117_1379">
<rect width="44.2271" height="32.8544" fill="white" transform="translate(20.5154 27.7999)"/>
</clipPath>
<clipPath id="clip5_117_1379">
<rect width="29.4847" height="19.7969" fill="white" transform="translate(47.8943 56.8633)"/>
</clipPath>
</defs>
</svg>
