<svg width="47" height="46" viewBox="0 0 47 46" fill="none" xmlns="http://www.w3.org/2000/svg">
<mask id="mask0_117_642" style="mask-type:alpha" maskUnits="userSpaceOnUse" x="0" y="0" width="47" height="46">
<circle cx="23.2098" cy="23.0453" r="22.8703" fill="#C4C4C4"/>
</mask>
<g mask="url(#mask0_117_642)">
<path d="M58.9461 -3.00171H15.3345C14.531 -3.00171 13.8797 -2.35038 13.8797 -1.54692V24.8853C13.8797 25.6888 14.531 26.3401 15.3345 26.3401H58.9461C59.7495 26.3401 60.4009 25.6888 60.4009 24.8853V-1.54692C60.4009 -2.35038 59.7495 -3.00171 58.9461 -3.00171Z" stroke="#EDEDED" stroke-width="1.49665" stroke-linecap="round" stroke-linejoin="round"/>
<path d="M57.5673 -1.63525H16.7144C15.911 -1.63525 15.2596 -0.983922 15.2596 -0.180465V23.5133C15.2596 24.3168 15.911 24.9681 16.7144 24.9681H57.5673C58.3707 24.9681 59.022 24.3168 59.022 23.5133V-0.180465C59.022 -0.983922 58.3707 -1.63525 57.5673 -1.63525Z" stroke="#DDDDDD" stroke-width="1.49665" stroke-linecap="round" stroke-linejoin="round"/>
<path d="M15.3142 17.6818C13.777 17.8669 13.5877 16.8582 13.0283 15.4237C12.4688 13.9892 12.5672 12.6425 12.1875 10.4368C11.7436 7.8695 14.8617 7.81174 15.5035 11.4113C15.5303 11.5567 15.5592 11.7258 15.5902 11.9108C15.6811 12.4318 15.7956 13.0875 15.9603 13.7379C16.002 13.9015 16.0469 14.0652 16.094 14.2267C16.4042 15.2632 16.8546 17.4957 15.3142 17.6818Z" fill="#B25E47"/>
<path d="M15.9648 13.7382C13.896 14.38 13.589 12.6877 13.6114 11.9956L15.5925 11.9111C15.6856 12.4289 15.8 13.0846 15.9648 13.7382Z" fill="#914839"/>
<path d="M23.4043 24.4412C23.324 24.5178 23.2389 24.5892 23.1497 24.6552C23.0823 24.7087 23.001 24.7696 22.9069 24.8327L22.8266 24.8873L22.7347 24.9461C22.6052 25.0274 22.4587 25.113 22.2939 25.1964C22.2169 25.236 22.1356 25.2767 22.05 25.3141C22.0062 25.3344 21.9613 25.3548 21.9142 25.374L21.7741 25.4318C21.7302 25.4489 21.6864 25.466 21.6404 25.4821C21.5944 25.4981 21.5334 25.5227 21.4713 25.542C21.4093 25.5612 21.3644 25.5773 21.3109 25.5933C21.2574 25.6094 21.2039 25.6265 21.1451 25.6414L20.9953 25.681L20.9547 25.6906L20.8006 25.7249C20.6776 25.7527 20.5514 25.7752 20.4198 25.7944C20.3663 25.804 20.3129 25.8115 20.2562 25.8179C20.2358 25.8179 20.2155 25.8233 20.1941 25.8244C20.1374 25.8318 20.0807 25.8372 20.023 25.8425V25.8532C20.0529 26.1485 20.3781 31.7366 20.4615 33.2053L20.469 33.3358C20.469 33.3657 20.469 33.3925 20.469 33.416C16.3593 33.309 12.2645 33.2695 8.31941 33.2802C8.23811 31.8104 8.09156 29.0944 7.94929 26.3271C7.7514 22.4495 7.56313 18.4766 7.58453 17.7043V17.6925C7.62946 16.2056 7.42086 15.0921 8.69059 14.6011C9.13345 14.4299 9.76029 14.3337 10.6332 14.3251H10.8011H10.9862H11.1809C11.2472 14.3251 11.3092 14.3251 11.3691 14.3187H11.5007L11.6258 14.3123H11.7328L11.9061 14.3026L12.0281 14.2941C12.0922 14.2941 12.15 14.2855 12.2035 14.2813H12.2366L12.2976 14.2759L12.3843 14.2663H12.4142C12.473 14.2588 12.5212 14.2513 12.5565 14.2449C12.5918 14.2385 12.6078 14.2353 12.6271 14.231C12.6478 14.2271 12.6679 14.2206 12.687 14.2117C12.9672 14.9862 13.7481 16.4025 15.0574 16.2238C16.3667 16.0452 16.2566 14.5861 15.9966 13.9475L16.0212 13.9689L16.0587 13.9989L16.141 14.0588C16.1528 14.0673 16.1656 14.0769 16.1795 14.0855L16.2234 14.1144L16.2662 14.1411L16.325 14.1764C16.3753 14.2042 16.432 14.231 16.4844 14.2545L16.54 14.277C16.5775 14.2898 16.6149 14.2994 16.647 14.308C16.6868 14.316 16.7273 14.3199 16.7679 14.3198C16.7807 14.3209 16.7936 14.3209 16.8064 14.3198C16.8203 14.3198 16.8331 14.3198 16.846 14.3133C17.0503 14.262 17.6247 14.1614 18.4109 14.4695C18.9126 14.6674 19.501 15.0322 20.1353 15.6847C20.546 16.1347 20.8937 16.6385 21.1686 17.1823C22.2993 19.2628 23.139 22.4313 23.4043 24.4412Z" fill="#C3DCF8"/>
<path d="M21.1761 17.1636C20.4884 17.0657 19.7877 17.1981 19.1832 17.5401C18.7083 17.8286 18.3345 18.2573 18.1135 18.7671C17.0096 21.2017 14.1171 22.1163 12.1842 19.4217C11.9155 19.0401 11.6044 18.6902 11.2568 18.3788C10.2181 17.4674 9.01039 17.216 7.577 17.7145V17.7027C7.62192 16.2158 7.41333 15.1023 8.68306 14.6113C9.12592 14.4401 9.75276 14.3439 10.6256 14.3353C12.4762 14.3161 12.6827 14.1973 12.6827 14.1973C12.9629 14.9718 13.7438 16.3881 15.0531 16.2094C16.3624 16.0308 16.2522 14.5717 15.9923 13.9331C16.0212 13.9577 16.5272 14.3781 16.8481 14.2979C17.0524 14.2465 17.6268 14.146 18.413 14.454C18.9147 14.6519 19.5031 15.0167 20.1374 15.6692C20.5498 16.1179 20.8992 16.6207 21.1761 17.1636Z" fill="#D0E5F7"/>
<path d="M23.0523 33.5022C22.1901 33.4743 21.3283 33.4494 20.4668 33.4273V33.3471L20.4593 33.2165L20.0207 25.8645V25.8538L23.0523 23.7893C23.0929 24.0589 23.1271 24.352 23.1592 24.6622C23.4331 27.8328 23.0993 32.8176 23.0523 33.5022Z" fill="#B25E47"/>
<path d="M23.4042 24.443C23.4042 24.443 22.1943 25.6635 20.0164 25.8529C19.8966 22.341 19.5597 19.5609 19.1853 17.5424C18.9275 16.1464 18.6504 15.1131 18.4204 14.4563C18.9221 14.6542 19.5105 15.019 20.1448 15.6715C20.5555 16.1215 20.9032 16.6253 21.1781 17.1691C22.2992 19.2646 23.1389 22.433 23.4042 24.443Z" fill="#FED81D"/>
<path d="M21.1761 17.1658C20.4884 17.0679 19.7877 17.2003 19.1832 17.5424C18.9254 16.1464 18.6484 15.1131 18.4184 14.4563C18.9201 14.6542 19.5084 15.019 20.1427 15.6715C20.5533 16.1205 20.9009 16.6232 21.1761 17.1658Z" fill="#FFE05C"/>
<path d="M20.0144 25.8515C19.8946 22.3397 19.5577 19.5595 19.1833 17.541" stroke="#F7AD2B" stroke-width="0.562278" stroke-linecap="round" stroke-linejoin="round"/>
<path d="M12.6205 13.8135C11.9786 14.0659 11.9786 14.3483 11.9786 14.6553C11.9786 14.9623 12.5541 16.6375 13.6795 17.827C13.8987 18.0591 14.225 16.6268 14.547 16.5433C14.869 16.4599 15.1578 16.6075 15.3075 16.5861C15.4573 16.5647 15.8542 16.1711 16.1119 16.3497C16.3697 16.5284 16.9153 17.4194 17.0223 17.4429C17.1292 17.4665 17.1399 15.3324 16.8939 14.5826C16.8294 14.3707 16.7084 14.1803 16.5438 14.032C16.3793 13.8837 16.1775 13.783 15.9601 13.7407C15.9601 13.7407 16.1376 15.2896 15.6188 15.7496C14.5406 16.7081 13.4313 15.5004 12.6205 13.8135Z" fill="white"/>
<path d="M12.3158 9.56883C11.9403 9.42977 11.3648 9.78277 11.4429 10.3679C11.521 10.953 12.3864 11.1445 12.8142 10.8054C12.5999 10.4143 12.4326 9.99922 12.3158 9.56883Z" fill="#B25E47"/>
<path d="M11.7381 10.4061C11.7061 10.1547 12.0098 9.75787 12.4869 10.1344" stroke="#934735" stroke-width="0.562278" stroke-linecap="round" stroke-linejoin="round"/>
<path d="M12.2943 10.5713C11.7969 10.5584 11.9434 10.0225 12.3927 10.0696" stroke="#934735" stroke-width="0.562278" stroke-linecap="round" stroke-linejoin="round"/>
<path d="M16.2041 10.1695L15.9346 10.2476L13.2935 11.0113C13.2935 11.0113 13.2229 10.9429 13.1159 10.8241C12.7671 10.4401 12.4893 9.99714 12.2955 9.51588C12.2373 9.36045 12.1968 9.19898 12.1746 9.03452C12.0441 8.01082 13.1084 6.09285 14.8799 6.97856C15.4521 7.5241 15.7773 8.49325 15.8608 8.77779L15.8886 8.87406C15.9902 9.25381 16.2041 10.1695 16.2041 10.1695Z" fill="#B25E47"/>
<path d="M14.3117 9.805C14.3117 10.0782 14.2032 10.3402 14.01 10.5334C13.8168 10.7266 13.5548 10.8351 13.2816 10.8351C13.2246 10.8352 13.1678 10.8309 13.1115 10.8223C12.7626 10.4383 12.4848 9.9953 12.291 9.51404C12.3609 9.27595 12.5143 9.07103 12.723 8.93688C12.9318 8.80274 13.1819 8.74836 13.4275 8.78372C13.6731 8.81909 13.8977 8.94182 14.0601 9.12941C14.2225 9.317 14.3119 9.55687 14.3117 9.805Z" fill="#A0503D"/>
<path d="M16.2042 10.1698L15.9347 10.2479C15.8228 10.1732 15.7304 10.073 15.665 9.95556C15.5997 9.83809 15.5632 9.70674 15.5587 9.57238C15.5542 9.43802 15.5818 9.30453 15.6392 9.18296C15.6966 9.06138 15.7821 8.95523 15.8887 8.87329C15.9903 9.2541 16.2042 10.1698 16.2042 10.1698Z" fill="#A0503D"/>
<path d="M14.2691 8.77331C14.2689 8.80048 14.2767 8.8271 14.2917 8.84978C14.3067 8.87246 14.328 8.89017 14.3531 8.90067C14.3782 8.91116 14.4058 8.91396 14.4324 8.90872C14.4591 8.90347 14.4836 8.8904 14.5028 8.87119C14.522 8.85198 14.5351 8.82748 14.5403 8.80082C14.5456 8.77416 14.5428 8.74655 14.5323 8.72148C14.5218 8.69642 14.5041 8.67505 14.4814 8.66008C14.4587 8.64512 14.4321 8.63724 14.4049 8.63746C14.3871 8.63746 14.3694 8.64097 14.3529 8.6478C14.3364 8.65462 14.3215 8.66463 14.3089 8.67725C14.2962 8.68986 14.2862 8.70484 14.2794 8.72132C14.2726 8.7378 14.2691 8.75547 14.2691 8.77331Z" fill="#683F1D"/>
<path d="M15.2555 8.63693C15.2555 8.66405 15.2635 8.69057 15.2786 8.7131C15.2937 8.73564 15.3152 8.75319 15.3402 8.76352C15.3653 8.77386 15.3929 8.7765 15.4195 8.77113C15.4461 8.76576 15.4705 8.75262 15.4896 8.73336C15.5087 8.7141 15.5216 8.68961 15.5268 8.66298C15.532 8.63635 15.5291 8.60878 15.5186 8.58378C15.508 8.55878 15.4903 8.53747 15.4677 8.52256C15.445 8.50764 15.4184 8.49979 15.3913 8.5C15.3734 8.5 15.3556 8.50355 15.3391 8.51045C15.3225 8.51734 15.3075 8.52744 15.2949 8.54017C15.2822 8.5529 15.2723 8.568 15.2655 8.58461C15.2587 8.60122 15.2553 8.619 15.2555 8.63693Z" fill="#683F1D"/>
<path d="M16.4277 11.822C15.8512 13.3004 14.4156 12.8714 13.7749 12.4564C13.1341 12.0413 12.8122 10.9759 12.3586 10.2474C11.7649 9.29861 11.7842 8.36691 12.0997 7.68016C12.2973 7.21539 12.669 6.84641 13.1352 6.65218C14.1386 6.28528 14.8809 6.97309 14.8809 6.97309C14.8606 7.61491 13.6337 7.44376 13.4016 7.37423C12.8293 7.20629 12.5971 7.81815 12.5298 8.30166C12.4506 8.86325 12.5362 9.4473 12.8432 9.87625C13.1502 10.3052 13.378 10.4111 13.5449 10.1972C13.7118 9.98322 14.0295 9.7404 14.8403 9.6099C15.6511 9.47939 16.0234 9.86662 16.0234 9.86662C16.0234 9.72115 15.8693 8.8333 15.8608 8.77874C16.1549 9.29894 16.3681 9.86092 16.493 10.4453C16.5818 10.9042 16.5935 11.3931 16.4277 11.822Z" fill="#FFEACC"/>
<path d="M16.4277 11.8216C15.8512 13.2999 14.4156 12.8709 13.7749 12.4559C13.1341 12.0408 12.8122 10.9754 12.3586 10.247C11.7649 9.29814 11.7842 8.36643 12.0997 7.67969C12.0783 9.5078 13.3502 11.5306 14.1322 11.9029C14.866 12.2537 16.1881 12.1371 16.4908 10.4459C16.5818 10.9038 16.5935 11.3926 16.4277 11.8216Z" fill="#EDD6B7"/>
<path d="M14.4052 10.0344C14.7337 10.0543 15.063 10.0543 15.3915 10.0344C15.3915 10.0344 15.2599 10.4698 14.8566 10.4324C14.7475 10.4266 14.6436 10.3842 14.5617 10.312C14.4797 10.2397 14.4246 10.1419 14.4052 10.0344Z" fill="white" stroke="#934735" stroke-width="0.562278" stroke-linecap="round" stroke-linejoin="round"/>
<path d="M14.268 7.78063C14.3343 8.0427 13.6743 8.50588 13.5096 8.31548C13.3449 8.12507 14.1675 7.38698 14.268 7.78063Z" fill="#FFEACC"/>
<path d="M14.8605 7.66611C14.8402 7.85438 15.6339 8.01269 15.6446 7.87042C15.6553 7.72815 14.898 7.32594 14.8605 7.66611Z" fill="#FFEACC"/>
<path d="M14.7268 7.97534C14.6498 8.24598 14.6006 8.59791 14.8606 8.72413C15.1205 8.85035 15.4724 8.80115 15.5077 9.31674" stroke="#934735" stroke-width="0.562278" stroke-linecap="round" stroke-linejoin="round"/>
<path d="M5.21948 25.6191C5.07079 27.3103 5.06651 30.85 6.82402 31.7485C9.71969 33.2279 10.3326 29.4027 10.2053 25.6191H5.21948Z" fill="#B25E47"/>
<path d="M11.2856 19.7039C11.2311 21.9406 10.2662 26.2408 10.2662 26.2408C9.36873 26.3146 8.60176 26.3478 7.94603 26.3478C5.18407 26.3478 4.41603 25.8044 4.41603 25.8044C4.41603 25.8044 4.97548 21.4935 5.76599 18.6674C5.84515 18.3818 5.92751 18.1111 6.01095 17.8619C6.73941 15.7022 7.65935 14.8058 8.68519 14.6218C8.95537 14.5752 9.23124 14.5719 9.50244 14.6121C10.6385 14.7662 11.138 16.5376 11.2589 18.3892C11.2888 18.8225 11.2963 19.2696 11.2856 19.7039Z" fill="#FED81D"/>
<path d="M11.2609 18.3792C10.2222 17.4679 9.01454 17.2165 7.58114 17.715C6.93659 17.9487 6.32527 18.2655 5.76266 18.6574C5.84181 18.3718 5.92418 18.1011 6.00762 17.8519C6.73608 15.6922 7.65602 14.7958 8.68186 14.6118C8.95204 14.5652 9.22791 14.5619 9.49911 14.6021C10.6405 14.7562 11.14 16.5255 11.2609 18.3792Z" fill="#FFE05C"/>
<path d="M11.2857 19.7019C11.2311 21.9386 10.2663 26.2388 10.2663 26.2388" stroke="#F7AD2B" stroke-width="0.562278" stroke-linecap="round" stroke-linejoin="round"/>
<path d="M21.558 21.9487C21.558 21.9487 21.8789 22.184 21.5376 22.828C21.5376 22.828 21.8938 23.1564 21.4168 23.7073C21.4817 23.8345 21.4991 23.9807 21.4657 24.1195C21.4324 24.2584 21.3505 24.3808 21.2349 24.4646C20.753 24.8863 20.241 25.2724 19.7031 25.6199C19.4528 25.7739 19.1084 25.9996 18.5649 26.3847C18.351 26.5366 18.1028 26.7142 17.8162 26.9196C17.1743 27.387 16.3378 28.0085 15.236 28.845C10.7701 32.2317 8.1033 32.696 6.55224 31.5803C5.31995 30.6945 6.87315 26.7003 11.6301 25.1022C14.0786 24.2785 15.5816 23.8474 16.5015 23.5885C16.8748 23.4816 17.1529 23.4067 17.3573 23.3447C17.629 23.2612 17.7755 23.2035 17.8557 23.1361C18.1424 22.89 18.2751 22.6012 18.4141 22.2546C18.5532 21.908 18.8805 20.6094 18.9618 20.2543C19.0431 19.8992 19.6582 19.6938 19.5555 21.7016C19.5555 21.7016 21.3151 21.1282 21.6339 21.0459C21.9527 20.9635 22.0789 21.662 21.558 21.9487Z" fill="#B25E47"/>
<path d="M18.5648 26.3845C18.3509 26.5364 18.1027 26.7139 17.8161 26.9193C17.4139 26.4412 16.5581 25.2356 16.5035 23.5893C16.8769 23.4824 17.155 23.4075 17.3593 23.3455C17.4139 24.1766 17.9016 25.6357 18.5648 26.3845Z" fill="#683F1D"/>
<path d="M17.231 25.8515C17.6782 25.8515 18.0408 25.4889 18.0408 25.0417C18.0408 24.5945 17.6782 24.2319 17.231 24.2319C16.7838 24.2319 16.4212 24.5945 16.4212 25.0417C16.4212 25.4889 16.7838 25.8515 17.231 25.8515Z" fill="white" stroke="#683F1D" stroke-width="0.744192" stroke-linecap="round" stroke-linejoin="round"/>
<path d="M18.4184 22.2563C18.5564 21.9087 18.8848 20.6111 18.9661 20.256C19.0474 19.9009 19.6625 19.6955 19.5598 21.7033C19.5598 21.7033 21.3194 21.1299 21.6382 21.0476C21.957 20.9652 22.0789 21.6627 21.558 21.9493C21.558 21.9493 21.8789 22.1847 21.5376 22.8286C21.5376 22.8286 21.8938 23.157 21.4168 23.7079C21.4817 23.8351 21.4991 23.9813 21.4657 24.1202C21.4324 24.259 21.3505 24.3814 21.2349 24.4653" stroke="#934735" stroke-width="0.562278" stroke-linecap="round" stroke-linejoin="round"/>
<path d="M21.5579 21.9485C21.237 22.0961 20.5845 22.3646 20.5845 22.3646" stroke="#934735" stroke-width="0.562278" stroke-linecap="round" stroke-linejoin="round"/>
<path d="M21.5376 22.8286C21.343 22.9559 20.8883 23.1838 20.8883 23.1838" stroke="#934735" stroke-width="0.562278" stroke-linecap="round" stroke-linejoin="round"/>
<path d="M21.4168 23.7073C21.3236 23.7613 21.2263 23.8078 21.1258 23.8463" stroke="#934735" stroke-width="0.562278" stroke-linecap="round" stroke-linejoin="round"/>
<path d="M19.5599 21.7029C19.2614 21.7906 19.025 21.8794 19.025 21.8794" stroke="#934735" stroke-width="0.562278" stroke-linecap="round" stroke-linejoin="round"/>
<path d="M32.237 20.5629C32.2274 20.7364 32.2086 20.9092 32.1809 21.0807C31.9639 22.4926 31.1838 24.5212 30.3182 25.7605C30.1449 26.0159 29.9449 26.2521 29.7216 26.4651C29.0412 27.0911 27.9578 27.2092 27.2012 26.771C26.9728 26.6393 26.7781 26.4563 26.6327 26.2364C26.4873 26.0165 26.395 25.7658 26.3633 25.5041C26.3303 25.2772 26.3277 25.047 26.3557 24.8195C26.5007 23.5366 27.3746 21.338 28.4295 19.7518C28.5494 19.5691 28.6734 19.394 28.7982 19.2306C29.394 18.4497 30.0249 17.905 30.6014 17.8464C30.7205 17.8324 30.8412 17.8418 30.9567 17.874C31.9119 18.1489 32.3233 18.8963 32.237 20.5629Z" fill="#FED81D"/>
<path d="M30.4893 21.3339C30.1997 22.3298 30.0835 23.368 30.1457 24.4032C30.1791 24.8601 30.2367 25.3149 30.3183 25.7657C30.145 26.0211 29.9451 26.2573 29.7217 26.4703C29.0413 27.0963 27.9579 27.2144 27.2013 26.7762C26.9729 26.6445 26.7782 26.4615 26.6328 26.2416C26.4874 26.0217 26.3951 25.771 26.3634 25.5093C27.0337 26.2282 27.7375 26.3832 28.2906 26.2014C29.0933 25.9433 29.5969 24.9889 29.2877 24.0128C28.7439 22.2967 29.9706 21.3155 30.5563 21.0298C30.5412 21.1253 30.5177 21.2267 30.4893 21.3339Z" fill="#FCC71F"/>
<path d="M32.2372 20.5629C32.2276 20.7364 32.2088 20.9092 32.1811 21.0807C32.0807 20.9319 31.9981 20.7719 31.9347 20.6039C31.6381 19.8121 31.1035 19.3663 30.5103 19.1728C29.9497 18.9989 29.3468 19.0193 28.7992 19.2306C29.395 18.4497 30.0259 17.905 30.6024 17.8464C30.7215 17.8324 30.8422 17.8418 30.9577 17.874C31.9121 18.1489 32.3235 18.8963 32.2372 20.5629Z" fill="#FFE05C"/>
<path d="M38.9304 34.5308C36.6949 34.1529 34.4635 33.8504 32.3269 33.6468C31.6967 33.5876 31.0602 33.5317 30.4173 33.4792C30.5379 32.0238 30.8094 29.6349 31.3088 29.0542C31.3352 29.0174 31.3693 28.9868 31.4086 28.9644C31.4479 28.942 31.4916 28.9283 31.5367 28.9243C31.8199 28.9193 32.5288 28.8958 33.3717 28.8648C35.2428 28.7944 37.7741 28.6897 37.7741 28.6897C37.8102 28.8305 37.8462 28.9704 37.8814 29.1087C37.8814 29.1145 37.8814 29.1212 37.8872 29.1279C38.3304 30.9091 38.6786 32.7126 38.9304 34.5308Z" fill="#83ADDF"/>
<path d="M36.8769 29.4099C37.1392 29.9965 37.8405 30.6844 38.0777 30.8411" stroke="white" stroke-width="0.744192" stroke-miterlimit="10"/>
<path d="M34.5132 19.203C33.434 19.3345 33.201 18.4698 33.1943 17.2339C33.1943 16.9431 33.2044 16.6314 33.2203 16.3063C33.229 16.1156 33.2494 15.9256 33.2815 15.7374C33.6493 13.6317 35.3922 13.8864 35.4818 15.1274C35.5162 15.5983 35.848 19.0404 34.5132 19.203Z" fill="#B25E47"/>
<path d="M34.488 15.9359C34.4302 16.7671 33.8328 17.1928 33.1951 17.2339C33.1951 16.9431 33.2052 16.6314 33.2211 16.3063C33.2297 16.1156 33.2502 15.9256 33.2822 15.7373C33.6333 15.5874 34.5332 15.2656 34.488 15.9359Z" fill="#914839"/>
<path d="M38.6684 24.1241C38.6114 24.3141 38.5664 24.5075 38.5335 24.7031C38.5243 24.7568 38.5159 24.8104 38.5075 24.8632C38.1766 26.9253 38.1355 28.8382 38.1129 29.0368C38.0903 29.2354 36.2435 29.1667 34.8693 29.0997C34.3339 29.0728 33.6418 29.0804 32.9891 29.0854C31.9668 29.093 31.0409 29.0955 30.963 28.9505C30.9135 28.8567 30.7812 28.3078 30.637 27.6031C30.6144 27.4934 30.5918 27.3811 30.5683 27.268C30.5566 27.211 30.5457 27.1523 30.5348 27.0937C30.5239 27.035 30.5088 26.9588 30.4963 26.8918C30.4837 26.8247 30.4686 26.7476 30.4552 26.6747C30.4259 26.5139 30.3966 26.3513 30.3714 26.1896C30.3463 26.0279 30.3178 25.8695 30.2935 25.7137C30.2161 25.2621 30.1629 24.8068 30.1343 24.3495C30.0831 23.3135 30.2103 22.2765 30.5105 21.2836C30.5181 21.2576 30.5256 21.2325 30.5315 21.2074C30.5432 21.1638 30.5541 21.1236 30.5641 21.0775L30.5792 21.0096C30.5842 20.987 30.5884 20.9644 30.5926 20.9417C30.5968 20.9191 30.6018 20.8965 30.6052 20.8747C30.6085 20.8529 30.6127 20.8295 30.6161 20.8068C30.6236 20.7633 30.6295 20.7189 30.6354 20.6761C30.6471 20.5689 30.6563 20.4633 30.6605 20.3602C30.6605 20.346 30.6605 20.3317 30.6605 20.3183C30.6605 20.2454 30.6605 20.1734 30.6605 20.1022C30.6528 19.775 30.6161 19.4492 30.5507 19.1285C30.4452 18.5813 30.3035 18.1699 30.3387 17.9806C30.3555 17.8876 30.4519 17.8314 30.6211 17.8071C30.6328 17.8071 30.6454 17.8071 30.6563 17.8029C31.0753 17.7543 31.8746 17.8725 32.9656 18.0979C32.9877 17.853 33.0266 17.61 33.0821 17.3706C33.0928 17.3332 33.1157 17.3005 33.1471 17.2776C33.1785 17.2547 33.2167 17.2429 33.2555 17.244C33.3745 17.2331 33.5354 17.2767 33.6896 17.291C33.9518 17.3153 34.8442 17.1527 35.3034 16.9105C35.3956 16.8567 35.4975 16.8214 35.6033 16.8066C35.8237 16.7857 35.9 16.9591 35.9285 17.1963C35.9285 17.2063 35.9285 17.2172 35.9285 17.2273C35.9285 17.2373 35.9285 17.2491 35.9285 17.2608C35.9285 17.2725 35.9285 17.3044 35.9335 17.327C35.9385 17.3496 35.9335 17.3605 35.9377 17.3781C35.9419 17.3957 35.9377 17.4242 35.9419 17.4476C35.946 17.4711 35.9419 17.5038 35.9419 17.5314C35.9419 17.5591 35.9419 17.5851 35.9419 17.6152C35.9419 17.6286 35.9419 17.6429 35.9419 17.6571C35.9419 17.6714 35.9419 17.6806 35.9419 17.6923C35.9419 17.7041 35.9419 17.7242 35.9419 17.7401C35.9419 17.756 35.9419 17.7803 35.9419 17.7996C35.9419 17.8188 35.9419 17.839 35.9419 17.8582V17.8959C35.9419 18.0635 35.9419 18.1976 35.9419 18.1976C36.7714 17.8834 38.0216 17.5624 38.9692 18.1448H38.9743C39.2827 18.3402 39.5378 18.6091 39.7167 18.9274C39.7636 19.0067 39.808 19.0905 39.8499 19.1788C40.6492 20.8605 39.208 22.2908 38.6684 24.1241Z" fill="#FED81D"/>
<path d="M39.7359 18.9232C38.9357 19.0212 38.0399 19.5408 37.1995 20.5395C37.0688 20.6948 36.9398 20.8624 36.8124 21.0423C35.4608 22.9335 33.1071 22.4324 32.2039 21.0532C32.105 20.9037 32.024 20.7431 31.9626 20.5747C31.6735 19.7796 31.1439 19.3279 30.5532 19.1285C30.4476 18.5813 30.306 18.1699 30.3412 17.9806C30.358 17.8876 30.4543 17.8314 30.6236 17.8071C30.6353 17.8071 30.6479 17.8071 30.6588 17.8029C31.0777 17.7543 31.8771 17.8725 32.968 18.0979C32.9902 17.8531 33.0291 17.61 33.0845 17.3706C33.0953 17.3332 33.1182 17.3005 33.1496 17.2776C33.181 17.2547 33.2191 17.2429 33.258 17.244C33.3769 17.2331 33.5378 17.2767 33.692 17.291C33.9543 17.3153 34.8466 17.1527 35.3058 16.9105C35.3981 16.8567 35.5 16.8214 35.6058 16.8066C35.8262 16.7857 35.9024 16.9591 35.9309 17.1963C35.9309 17.2063 35.9309 17.2172 35.9309 17.2273C35.9309 17.2373 35.9309 17.2491 35.9309 17.2608C35.9309 17.2725 35.9309 17.3044 35.9359 17.327C35.941 17.3496 35.9359 17.3605 35.9401 17.3781C35.9443 17.3957 35.9401 17.4242 35.9443 17.4476C35.9485 17.4711 35.9443 17.5038 35.9443 17.5314C35.9443 17.5591 35.9443 17.5851 35.9443 17.6152C35.9443 17.6286 35.9443 17.6429 35.9443 17.6571C35.9443 17.6714 35.9443 17.6806 35.9443 17.6923C35.9443 17.704 35.9443 17.7242 35.9443 17.7401C35.9443 17.756 35.9443 17.7803 35.9443 17.7996C35.9443 17.8188 35.9443 17.839 35.9443 17.8582V17.8959C35.9443 18.0635 35.9443 18.1976 35.9443 18.1976C36.7738 17.8834 38.024 17.5624 38.9717 18.1448H38.9767C39.2908 18.3368 39.5517 18.6044 39.7359 18.9232Z" fill="#FFE05C"/>
<path d="M30.6319 20.3191C30.6292 20.5564 30.6057 20.7931 30.5615 21.0263C30.5414 21.126 30.5179 21.2274 30.4895 21.3305C30.1999 22.3263 30.0837 23.3645 30.1459 24.3997C30.1793 24.8566 30.2369 25.3114 30.3185 25.7622C30.3445 25.9172 30.373 26.0764 30.4023 26.2373C30.4911 26.7199 30.5908 27.2151 30.6855 27.6508C30.8372 28.353 30.9754 28.901 31.0257 28.9915" stroke="#F7AD2B" stroke-width="0.562278" stroke-linecap="round" stroke-linejoin="round"/>
<path d="M38.5267 24.8283C38.2175 26.8946 38.1966 28.8067 38.1756 29.0053C38.1547 29.2039 36.3079 29.1561 34.9337 29.1025C34.3983 29.0815 33.7062 29.0966 33.0535 29.1084C33.5897 28.6617 34.6991 27.9277 35.7633 28.3919C37.2405 29.0363 37.9368 27.0035 37.0352 26.8217C36.1336 26.6399 36.0867 25.6143 35.9107 24.7847L36.6481 24.4856L38.5267 24.8283Z" fill="#FCC71F"/>
<path d="M32.9144 18.1177C32.9052 18.2776 32.9052 18.4379 32.9144 18.5978" stroke="#F7AD2B" stroke-width="0.562278" stroke-linecap="round" stroke-linejoin="round"/>
<path d="M35.9109 18.1516C35.8991 18.4667 35.8849 18.672 35.8849 18.672" stroke="#F7AD2B" stroke-width="0.562278" stroke-linecap="round" stroke-linejoin="round"/>
<path d="M33.63 18.6411C34.0355 18.7576 34.6589 18.7643 35.0159 18.6411" stroke="#F7AD2B" stroke-width="0.562278" stroke-linecap="round" stroke-linejoin="round"/>
<path d="M42.4018 26.0441C41.9829 26.5761 40.8442 26.6784 39.9174 25.9385C39.659 25.7297 39.4377 25.4787 39.263 25.1961C39.1608 25.0335 39.0293 24.7872 38.8826 24.4973C38.8181 24.3682 38.7494 24.2308 38.6798 24.0884C38.2902 23.2907 37.8419 22.3237 37.5587 21.7707C37.4166 21.4913 37.3102 21.1952 37.242 20.8892C37.2135 20.7677 37.1909 20.6446 37.1733 20.5205C36.9596 19.0316 37.4942 17.468 38.9379 18.1007H38.9421C39.2295 18.2272 39.5354 18.5012 39.8429 18.8606C40.5886 19.7354 41.3377 21.123 41.8153 22.1662C41.9242 22.4033 42.0181 22.6229 42.0952 22.8147C42.6532 24.2023 42.9239 25.3754 42.4018 26.0441Z" fill="#FED81D"/>
<path d="M40.2109 23.6911C40.1782 24.2115 39.5674 24.426 38.8828 24.4972C38.8183 24.3682 38.7496 24.2308 38.68 24.0883C38.2904 23.2906 37.8421 22.3237 37.5589 21.7706C37.4168 21.4912 37.3104 21.1951 37.2422 20.8892C37.8287 20.9017 38.468 21.1162 38.5267 22.1226C38.5669 22.8097 40.2846 22.5005 40.2109 23.6911Z" fill="#FCC71F"/>
<path d="M39.8429 18.8632C39.7926 18.8632 39.7423 18.8715 39.6929 18.8782C38.8935 18.9838 38.0036 19.5134 37.1733 20.5205C36.9596 19.0316 37.4942 17.468 38.9379 18.1007H38.9421C39.2295 18.2297 39.5354 18.5037 39.8429 18.8632Z" fill="#FFE05C"/>
<path d="M39.263 25.1963C39.1608 25.0337 39.0292 24.7874 38.8826 24.4975C38.8181 24.3684 38.7494 24.231 38.6798 24.0886C38.2902 23.2909 37.8419 22.3239 37.5587 21.7709C37.4166 21.4915 37.3102 21.1954 37.242 20.8894C37.2135 20.7679 37.1908 20.6448 37.1732 20.5208" stroke="#F7AD2B" stroke-width="0.562278" stroke-linecap="round" stroke-linejoin="round"/>
<path d="M42.402 26.0436C41.983 26.5756 40.8443 26.6779 39.9175 25.938C40.146 25.8646 40.3881 25.8443 40.6256 25.8785C41.5691 26.0159 42.5 25.6271 41.7744 24.5286C41.1878 23.6379 41.6068 22.5176 41.8154 22.1682C41.9243 22.4053 42.0182 22.6249 42.0953 22.8168C42.6533 24.2018 42.924 25.3749 42.402 26.0436Z" fill="#FCC71F"/>
<path d="M36.3422 11.9605C36.1654 12.0862 36.0565 12.1063 36.0606 12.2956C36.0648 12.485 35.9827 12.5403 35.8998 12.5713C35.8168 12.6023 35.9098 12.7431 35.8838 12.8788C35.8579 13.0146 35.5093 13.1436 35.5093 13.1436L33.1941 12.0543C33.0014 11.8197 33.0852 11.6898 33.1472 11.5641C33.1533 11.5523 33.1564 11.5393 33.1564 11.526C33.1564 11.5128 33.1533 11.4997 33.1472 11.4879C33.1145 11.4041 32.9738 11.3245 33.0098 11.2265C33.0559 11.1016 33.1774 11.0807 33.3265 11.0756C33.4757 11.0706 33.443 10.6567 33.3743 10.5444C33.3056 10.4321 33.3584 10.1598 33.5922 10.1757C33.8259 10.1916 33.9147 10.1447 33.9357 10.0349C33.9498 9.99673 33.9716 9.96183 33.9998 9.93242C34.028 9.90301 34.0619 9.87972 34.0995 9.86399C34.1371 9.84827 34.1775 9.84046 34.2182 9.84104C34.2589 9.84162 34.2991 9.85058 34.3362 9.86737C34.518 9.96205 34.6714 9.85731 34.7837 9.75341C34.7901 9.7469 34.7971 9.741 34.8046 9.73581C34.9244 9.6428 35.1758 9.59169 35.278 9.75341C35.3803 9.91513 35.5177 9.99305 35.7364 10.0048C35.9551 10.0165 36.0171 10.2025 35.9701 10.3844C35.9232 10.5662 35.9911 10.629 36.1319 10.7128C36.2056 10.771 36.26 10.8503 36.2876 10.9401C36.3153 11.0298 36.3151 11.1259 36.2869 11.2156C36.2586 11.2686 36.2484 11.3294 36.2579 11.3887C36.2675 11.448 36.2962 11.5026 36.3397 11.544C36.4092 11.6228 36.519 11.8356 36.3422 11.9605Z" fill="#473526"/>
<path d="M35.4597 14.936C35.2769 15.0144 35.0786 15.0503 34.8799 15.0408C34.0847 15.0039 32.1433 15.7228 32.1433 15.7228C31.8173 15.763 31.6187 15.8753 31.7662 16.0379C31.9137 16.2004 32.0519 16.6697 31.6749 16.7082C31.6008 16.7152 31.5261 16.7152 31.452 16.7082C31.2308 16.6889 31.1328 16.5959 31.1604 16.5088C31.1956 16.3973 31.4352 16.425 31.4805 16.3764C31.5257 16.3278 31.5366 16.2289 31.3892 16.0907C31.2417 15.9524 31.1378 15.7396 31.2878 15.5226C31.4378 15.3055 31.7411 15.1078 31.5576 14.9545C31.3741 14.8011 31.2224 14.6637 31.3062 14.4802C31.39 14.2967 31.8157 14.0369 31.6171 13.8099C31.4185 13.5828 31.24 13.2954 31.6271 12.9435C32.0142 12.5915 32.4064 12.6586 32.3502 12.3569C32.2941 12.0553 32.341 11.7654 32.7583 11.8366C33.1756 11.9078 33.2376 11.8776 33.4211 11.7754C33.6046 11.6732 33.8484 11.7293 34.0839 11.9338C34.3193 12.1382 34.5422 11.9078 34.8271 11.9639C35.112 12.0201 34.8271 12.2949 35.1891 12.3569C35.5511 12.4189 35.6734 12.4332 35.7145 12.7759C35.7555 13.1186 35.9952 13.1261 36.0446 13.2351C36.1477 13.4538 35.9843 13.6071 35.9382 13.7378C35.8921 13.8685 35.9935 13.9456 36.0739 14.0797C36.2021 14.3068 35.929 14.7366 35.4597 14.936Z" fill="#604730"/>
<path d="M35.5835 14.3241C35.5569 14.5311 35.5146 14.7359 35.4569 14.9366C35.2741 15.015 35.0758 15.0508 34.8771 15.0413C34.0819 15.0044 32.1405 15.7234 32.1405 15.7234C31.8145 15.7636 31.6159 15.8759 31.7634 16.0384C31.9109 16.201 32.0491 16.6702 31.6721 16.7088C31.598 16.7158 31.5233 16.7158 31.4492 16.7088C31.7316 16.6627 31.807 16.4616 31.6612 16.1951C31.4609 15.8289 31.533 15.6086 31.7341 15.4016C31.9352 15.1946 31.6059 14.6952 31.7341 14.4338C31.8623 14.1724 32.0802 14.0802 31.993 13.6856C31.9059 13.2909 31.9486 13.099 32.2628 12.882C32.577 12.665 32.8368 12.6206 33.0035 12.3591C33.1703 12.0977 33.6052 11.9318 33.7535 12.2452C33.9018 12.5586 33.9495 12.7706 34.366 12.6432C34.7824 12.5158 35.0614 12.6725 34.9131 13.0303C34.7648 13.3881 34.8352 13.7275 35.0966 13.771C35.3581 13.8146 35.6354 13.828 35.5835 14.3241Z" fill="#473526"/>
<path d="M35.2873 15.5213C33.723 16.6592 33.0484 17.0338 32.3002 16.4045C31.9516 16.1121 31.8913 15.5146 31.96 14.9046C31.9856 14.6871 32.0248 14.4713 32.0773 14.2586C32.1556 13.9126 32.2757 13.5775 32.4351 13.2607C32.7703 12.654 33.5428 12.6238 33.6207 12.654C33.6987 12.6842 33.723 12.7294 33.6476 12.9054C33.5721 13.0813 33.6551 13.2129 33.8721 13.2196C34.0891 13.2263 34.3372 13.3771 34.3137 13.5941C34.2995 13.6998 34.3168 13.8073 34.3635 13.9031C34.4101 13.999 34.484 14.0789 34.576 14.1329C34.7779 14.2603 34.7435 14.4555 34.7704 14.5745C34.7972 14.6935 35.0477 14.8259 35.1156 14.6642C35.1834 14.5024 35.5714 14.148 35.8865 14.4706C36.2015 14.7932 35.9233 15.544 35.2873 15.5213Z" fill="#B25E47"/>
<path d="M33.412 14.708C33.4874 14.8647 33.7589 14.8899 34.017 14.765C34.2751 14.6402 34.425 14.4122 34.3521 14.2556C34.2793 14.0989 34.0061 14.0729 33.7472 14.1986C33.4883 14.3243 33.3366 14.5513 33.412 14.708Z" fill="#A0503D"/>
<path d="M32.3569 14.8438C32.2857 14.9435 32.1282 14.9619 31.9597 14.9041C31.9854 14.6865 32.0245 14.4707 32.0771 14.2581C32.0912 14.2662 32.1049 14.2752 32.1181 14.2849C32.3519 14.4525 32.4583 14.703 32.3569 14.8438Z" fill="#A0503D"/>
<path d="M32.3266 14.0884C32.3265 14.1097 32.3326 14.1305 32.3443 14.1483C32.356 14.1661 32.3728 14.18 32.3924 14.1883C32.412 14.1966 32.4337 14.1988 32.4546 14.1948C32.4755 14.1907 32.4947 14.1805 32.5099 14.1655C32.525 14.1505 32.5353 14.1314 32.5395 14.1105C32.5437 14.0896 32.5417 14.068 32.5335 14.0483C32.5254 14.0286 32.5117 14.0117 32.494 13.9999C32.4763 13.988 32.4554 13.9817 32.4341 13.9817C32.4058 13.9817 32.3785 13.9929 32.3584 14.0129C32.3383 14.0329 32.3268 14.06 32.3266 14.0884Z" fill="#683F1D"/>
<path d="M32.9803 14.1456C32.9803 14.1669 32.9867 14.1877 32.9985 14.2053C33.0103 14.223 33.0271 14.2368 33.0467 14.2449C33.0664 14.2531 33.088 14.2552 33.1088 14.2511C33.1297 14.2469 33.1489 14.2367 33.1639 14.2216C33.1789 14.2066 33.1892 14.1874 33.1933 14.1666C33.1975 14.1457 33.1953 14.1241 33.1872 14.1045C33.1791 14.0848 33.1653 14.068 33.1476 14.0562C33.1299 14.0444 33.1091 14.0381 33.0879 14.0381C33.0593 14.0381 33.032 14.0494 33.0118 14.0696C32.9917 14.0897 32.9803 14.1171 32.9803 14.1456Z" fill="#683F1D"/>
<path d="M35.2291 15.043C35.2501 14.8126 35.5132 14.495 35.7972 14.7296" stroke="#934735" stroke-width="0.562278" stroke-linecap="round" stroke-linejoin="round"/>
<path d="M35.2395 14.9858C35.4364 14.6507 35.8327 15.1107 35.371 15.2029" stroke="#934735" stroke-width="0.562278" stroke-linecap="round" stroke-linejoin="round"/>
<path d="M32.6328 14.7749C32.5155 14.7205 32.4694 14.614 32.4794 14.5881C32.4895 14.5621 32.8565 14.2914 32.7861 13.875" stroke="#934735" stroke-width="0.562278" stroke-linecap="round" stroke-linejoin="round"/>
<path d="M33.0875 13.3546C33.054 13.5716 33.5811 13.7836 33.6623 13.647C33.7319 13.5297 33.1361 13.0387 33.0875 13.3546Z" fill="#604730"/>
<path d="M32.2027 13.4973C32.2077 13.5593 32.7733 13.5467 32.7658 13.3297C32.7583 13.1127 32.1885 13.3146 32.2027 13.4973Z" fill="#604730"/>
<path d="M32.6879 14.9953C32.8839 14.9437 33.0754 14.8759 33.2602 14.7925C33.2602 14.7925 33.3188 15.1545 33.0875 15.2207C33.0465 15.2325 33.0035 15.236 32.9611 15.231C32.9187 15.2261 32.8777 15.2127 32.8405 15.1917C32.8033 15.1707 32.7706 15.1426 32.7444 15.1088C32.7182 15.0751 32.699 15.0365 32.6879 14.9953Z" fill="white" stroke="#934735" stroke-width="0.562278" stroke-linecap="round" stroke-linejoin="round"/>
<path d="M35.6675 11.0805C35.5838 11.3504 35.2662 11.0713 35.2411 11.4568C35.2159 11.8422 34.4467 11.7341 34.2113 11.3596C34.0185 11.0512 33.4722 11.1668 33.1513 11.4928C33.1186 11.409 32.9778 11.3294 33.0139 11.2314C33.06 11.1065 33.1815 11.0856 33.3306 11.0805C33.4798 11.0755 33.4471 10.6616 33.3784 10.5493C33.3097 10.437 33.3625 10.1647 33.5962 10.1806C33.83 10.1965 33.9188 10.1496 33.9398 10.0399C33.9539 10.0016 33.9757 9.96674 34.0039 9.93733C34.0321 9.90792 34.066 9.88462 34.1036 9.8689C34.1411 9.85318 34.1816 9.84536 34.2223 9.84594C34.263 9.84653 34.3032 9.85549 34.3403 9.87227C34.5221 9.96696 34.6755 9.86222 34.7877 9.75832C34.7942 9.75181 34.8012 9.74591 34.8087 9.74072C34.8983 9.9921 34.9637 10.3423 35.3114 10.3733C35.7966 10.4178 35.7513 10.8099 35.6675 11.0805Z" fill="#604730"/>
<path d="M25.6502 18.4896C25.6938 18.2131 26.4705 18.007 26.9222 17.9207L27.0948 19.0368C27.0948 19.0368 25.853 18.8591 25.6502 18.4896Z" fill="#FCC71F"/>
<path d="M26.3726 19.0845C26.2829 17.8762 26.2829 16.8598 26.2578 16.471C26.2326 16.0822 26.2519 15.6758 26.7052 15.489C26.7052 15.489 26.7052 15.1329 27.2222 15.07C27.2222 15.07 27.1569 14.7508 27.5892 14.7592C27.5883 14.7293 27.5944 14.6996 27.6069 14.6724C27.6194 14.6452 27.638 14.6213 27.6613 14.6026C27.6846 14.5838 27.712 14.5707 27.7412 14.5643C27.7704 14.5579 27.8007 14.5583 27.8297 14.5656C28.1129 14.615 28.2043 14.7885 28.2043 14.7885C28.5796 14.7047 28.7908 15.0977 28.7707 15.4186C28.7506 15.7395 28.7279 16.0889 28.5729 16.4124C28.4179 16.7358 28.221 17.2712 28.221 17.2712L28.2336 17.9499C28.2336 17.9499 27.9453 20.1327 26.3726 19.0845Z" fill="#B25E47"/>
<path d="M26.258 16.471C26.232 16.0864 26.2521 15.6758 26.7054 15.489C26.7054 15.489 26.7054 15.1329 27.2224 15.07C27.2224 15.07 27.157 14.7508 27.5894 14.7592C27.5885 14.7293 27.5945 14.6996 27.6071 14.6724C27.6196 14.6452 27.6382 14.6213 27.6615 14.6026C27.6848 14.5838 27.7121 14.5707 27.7413 14.5643C27.7706 14.5579 27.8009 14.5583 27.8299 14.5656C28.1131 14.615 28.2044 14.7885 28.2044 14.7885C28.5798 14.7047 28.791 15.0977 28.7708 15.4186" stroke="#934735" stroke-width="0.562278" stroke-linecap="round" stroke-linejoin="round"/>
<path d="M28.2041 14.7891C27.8179 14.9793 27.5338 15.3362 27.6503 15.5113C27.7668 15.6865 28.205 15.4669 28.2645 15.4108" stroke="#934735" stroke-width="0.562278" stroke-linecap="round" stroke-linejoin="round"/>
<path d="M27.5566 14.76C27.7024 14.7793 27.9898 14.941 27.9898 14.941" stroke="#934735" stroke-width="0.562278" stroke-linecap="round" stroke-linejoin="round"/>
<path d="M27.2224 15.0701C27.3918 15.077 27.5577 15.1198 27.7093 15.1958" stroke="#934735" stroke-width="0.562278" stroke-linecap="round" stroke-linejoin="round"/>
<path d="M27.6429 16.0081C27.7719 15.91 27.8834 15.7374 27.8499 15.5774" stroke="#934735" stroke-width="0.562278" stroke-linecap="round" stroke-linejoin="round"/>
<path d="M26.7018 15.4902C27.0102 15.3637 27.3235 15.2204 27.4166 15.4307C27.5096 15.641 27.5607 16.2887 27.4166 16.3767C27.2724 16.4647 27.0311 16.3918 26.9901 16.2225C26.949 16.0533 26.918 15.8212 26.918 15.8212" stroke="#934735" stroke-width="0.562278" stroke-linecap="round" stroke-linejoin="round"/>
<path d="M27.2777 16.4155C27.4076 16.5756 27.3615 17.142 27.2224 17.3314" stroke="#934735" stroke-width="0.562278" stroke-linecap="round" stroke-linejoin="round"/>
<path d="M28.2939 26.1917C28.0425 26.6685 27.6822 26.9282 27.1996 26.7665C26.2905 26.4581 25.9285 25.5859 25.7961 24.7337C25.657 23.8447 25.7659 22.9741 25.7617 22.7931C25.7525 22.432 25.6537 18.4904 25.6537 18.4904C25.8112 18.5533 26.05 18.555 26.3391 18.5005C26.5593 18.4568 26.7754 18.3946 26.9851 18.3145C27.4245 18.1461 27.8427 17.9267 28.2311 17.6609L28.2478 17.6492C28.2478 17.6492 28.3266 18.6262 28.433 19.749C28.5227 20.7109 28.6333 21.7792 28.7321 22.4303C28.888 23.4911 28.7967 25.2599 28.2939 26.1917Z" fill="#FED81D"/>
<path d="M28.2939 26.1906C28.0425 26.6674 27.6822 26.9272 27.1996 26.7654C26.2904 26.4571 25.9285 25.5848 25.7961 24.7327C25.958 25.0079 26.149 25.2649 26.3658 25.4994C27.037 26.2208 27.7383 26.3758 28.2939 26.1906Z" fill="#FCC71F"/>
<path d="M28.2452 17.6509C28.2452 17.6509 28.5167 21.0176 28.7295 22.4345C28.8455 23.3357 28.8172 24.2496 28.6457 25.1418" stroke="#F7AD2B" stroke-width="0.562278" stroke-linecap="round" stroke-linejoin="round"/>
<path d="M37.8579 21.7052L34.6253 20.3549C34.3704 20.2484 34.0774 20.3688 33.9709 20.6237L32.0513 25.2194C31.9448 25.4744 32.0651 25.7674 32.3201 25.8738L35.5527 27.2241C35.8076 27.3306 36.1006 27.2102 36.2071 26.9553L38.1267 22.3596C38.2332 22.1046 38.1129 21.8116 37.8579 21.7052Z" fill="#EDEDED"/>
<path d="M37.4944 21.5519L34.6252 20.3534C34.3702 20.247 34.0773 20.3673 33.9708 20.6222L32.0512 25.218C31.9447 25.4729 32.065 25.7659 32.3199 25.8724L35.1892 27.0708C35.4441 27.1773 35.7371 27.057 35.8436 26.8021L37.7632 22.2063C37.8697 21.9514 37.7493 21.6584 37.4944 21.5519Z" fill="#F9F9F9" stroke="#DDDDDD" stroke-width="0.744192" stroke-linecap="round" stroke-linejoin="round"/>
<path d="M34.8157 21.118C34.8157 21.1611 34.8029 21.2032 34.779 21.239C34.7551 21.2749 34.721 21.3028 34.6812 21.3193C34.6414 21.3358 34.5976 21.3401 34.5554 21.3317C34.5131 21.3233 34.4743 21.3025 34.4438 21.2721C34.4133 21.2416 34.3926 21.2028 34.3842 21.1605C34.3758 21.1182 34.3801 21.0744 34.3966 21.0346C34.4131 20.9948 34.441 20.9608 34.4768 20.9369C34.5127 20.9129 34.5548 20.9001 34.5979 20.9001C34.6265 20.9 34.6549 20.9056 34.6814 20.9165C34.7078 20.9274 34.7319 20.9435 34.7522 20.9637C34.7724 20.984 34.7885 21.008 34.7994 21.0345C34.8103 21.061 34.8158 21.0894 34.8157 21.118Z" fill="#EDEDED"/>
<path d="M35.1754 21.3335C35.1756 21.3551 35.1693 21.3764 35.1574 21.3944C35.1454 21.4125 35.1284 21.4266 35.1084 21.435C35.0884 21.4434 35.0664 21.4456 35.0451 21.4414C35.0239 21.4372 35.0043 21.4268 34.989 21.4115C34.9737 21.3962 34.9633 21.3767 34.9591 21.3554C34.9549 21.3341 34.9571 21.3121 34.9655 21.2921C34.9739 21.2721 34.988 21.2551 35.0061 21.2432C35.0242 21.2312 35.0454 21.2249 35.0671 21.2251C35.0957 21.2253 35.1232 21.2368 35.1434 21.2571C35.1637 21.2774 35.1752 21.3048 35.1754 21.3335Z" fill="#EDEDED"/>
<path d="M35.0158 24.9483C34.8021 24.8737 34.6915 24.4606 34.663 24.1045L35.5009 24.2034C35.5009 24.2034 35.5068 25.0019 35.0158 24.9483Z" fill="#FCC71F"/>
<path d="M35.2971 24.7373C35.0594 24.5676 34.8133 24.4098 34.5598 24.2647C34.4642 24.2128 33.9221 24.1516 33.545 23.9438C33.291 23.8002 33.0461 23.641 32.8119 23.467L32.6627 23.7444C32.6627 23.7444 32.3695 23.4276 32.3276 23.1419C32.2857 22.8562 32.4013 22.847 32.47 22.7858C32.5387 22.7246 32.496 22.6341 32.4918 22.4867C32.4876 22.3392 32.6133 22.309 32.6527 22.2571C32.6921 22.2051 32.6569 22.0702 32.6485 21.8884C32.6401 21.7066 32.8563 21.6974 32.8906 21.5934C32.925 21.4895 32.956 21.1552 33.2509 21.2424C33.5459 21.3295 34.8296 22.2831 34.9134 22.3266C35.0381 22.3713 35.1658 22.4074 35.2954 22.4347C35.2954 22.4347 36.3462 24.0779 35.2971 24.7373Z" fill="#B25E47"/>
<path d="M32.8119 23.467L32.6627 23.7444C32.6627 23.7444 32.3695 23.4276 32.3276 23.1419C32.2857 22.8562 32.4013 22.847 32.47 22.7858C32.5387 22.7246 32.496 22.6341 32.4918 22.4867C32.4876 22.3392 32.6133 22.309 32.6527 22.2571C32.6921 22.2051 32.6569 22.0702 32.6485 21.8884C32.6401 21.7066 32.8563 21.6974 32.8906 21.5934C32.925 21.4895 32.956 21.1552 33.2509 21.2424" stroke="#934735" stroke-width="0.562278" stroke-linecap="round" stroke-linejoin="round"/>
<path d="M32.8125 23.4681C32.6655 23.3446 32.6352 23.3245 32.6352 23.3245" stroke="#934735" stroke-width="0.562278" stroke-linecap="round" stroke-linejoin="round"/>
<path d="M42.566 25.8213C42.297 26.6474 41.294 27.3798 39.0074 26.5151L38.8825 26.4665C36.5054 25.5238 35.0147 24.9473 35.0147 24.9473C35.2202 24.0781 35.2202 23.1729 35.0147 22.3037C36.3797 22.6858 39.9894 23.4265 41.2714 23.8027C41.3552 23.8279 41.439 23.8538 41.5136 23.8865C42.5894 24.2837 42.8257 25.0211 42.566 25.8213Z" fill="#FED81D"/>
<path d="M38.8827 26.4658C36.5055 25.5232 35.0157 24.9475 35.0157 24.9475" stroke="#F7AD2B" stroke-width="0.562278" stroke-linecap="round" stroke-linejoin="round"/>
<path d="M35.016 22.3037C36.2544 22.6506 39.343 23.2924 40.8613 23.6896" stroke="#F7AD2B" stroke-width="0.562278" stroke-linecap="round" stroke-linejoin="round"/>
<path d="M42.5662 25.8214C42.2973 26.6476 41.2943 27.3799 39.0076 26.5152C39.0076 26.5152 39.678 25.7401 40.6256 25.8775C41.5733 26.0149 42.5 25.6262 41.7744 24.5277C41.6459 24.3322 41.5573 24.1132 41.5138 23.8833C42.5897 24.2838 42.826 25.0212 42.5662 25.8214Z" fill="#FCC71F"/>
<path d="M42.6853 37.9342L48.0851 36.6934L52.8432 38.3214L48.1996 39.9078L42.6853 37.9342Z" stroke="#DDDDDD" stroke-width="0.744192" stroke-linecap="round" stroke-linejoin="round"/>
<path d="M45.8122 36.9209V37.9339C45.8122 38.2709 46.6786 38.5436 47.7483 38.5436C48.818 38.5436 49.6855 38.2709 49.6855 37.9339V36.9209H45.8122Z" fill="#DDDDDD" stroke="#DDDDDD" stroke-width="0.744192" stroke-miterlimit="10"/>
<path d="M47.7482 37.4821C46.6186 37.4821 45.8601 37.1922 45.8601 36.9205C45.8601 36.6488 46.6186 36.3589 47.7482 36.3589C48.8778 36.3589 49.6362 36.6498 49.6362 36.9205C49.6362 37.1911 48.8778 37.4821 47.7482 37.4821Z" fill="#F9F9F9"/>
<path d="M47.7483 36.4068C48.8886 36.4068 49.5882 36.7063 49.5882 36.9203C49.5882 37.1342 48.8886 37.4337 47.7483 37.4337C46.608 37.4337 45.9084 37.1342 45.9084 36.9203C45.9084 36.7063 46.608 36.4068 47.7483 36.4068ZM47.7483 36.3105C46.6786 36.3105 45.8122 36.5833 45.8122 36.9203C45.8122 37.2572 46.6786 37.53 47.7483 37.53C48.818 37.53 49.6855 37.2572 49.6855 36.9203C49.6855 36.5833 48.818 36.3105 47.7483 36.3105Z" fill="#DDDDDD"/>
<path d="M44.1916 37.9641C44.1916 38.0305 44.306 38.085 44.4472 38.085C44.5884 38.085 44.7029 38.0305 44.7029 37.9641C44.7029 37.8978 44.5884 37.8433 44.4472 37.8433C44.306 37.8433 44.1916 37.8978 44.1916 37.9641Z" fill="#DDDDDD"/>
<path d="M-4.10726 33.4986C-0.265978 33.3788 3.93579 33.305 8.32155 33.2922C12.2666 33.2815 16.3614 33.3221 20.4712 33.428C21.3319 33.4494 22.1937 33.4744 23.0566 33.5029C28.2051 33.6709 33.3407 33.9447 38.2068 34.3533C39.0276 34.4204 39.8402 34.4917 40.6446 34.5673C43.3723 34.8272 46.2209 35.2091 49.0749 35.6958C51.3983 36.0873 53.7249 36.5419 55.9926 37.0447C60.7367 38.093 65.2188 39.3456 68.8632 40.6421C72.6328 41.9845 75.5061 43.3762 76.8442 44.6449" stroke="#EDEDED" stroke-width="1.49665" stroke-linecap="round" stroke-linejoin="round"/>
<path d="M43.0009 39.1769C41.2734 40.0711 31.1337 42.7069 31.1337 42.7069L30.2052 41.788L24.2791 35.9271C24.2791 35.9271 29.9346 34.7911 30.9893 34.9184C31.8707 35.0254 39.779 37.1337 42.3056 38.3949C42.7998 38.6474 43.1282 39.1116 43.0009 39.1769Z" stroke="#EDEDED" stroke-width="0.744192" stroke-linecap="round" stroke-linejoin="round"/>
<path d="M24.536 36.8369C28.7474 36.1244 30.4065 35.6602 31.0013 35.8228C31.596 35.9854 39.6327 38.266 39.4979 38.3013C35.7251 39.2897 28.9999 40.8632 28.9999 40.8632L24.536 36.8369Z" stroke="#DDDDDD" stroke-width="0.744192" stroke-linecap="round" stroke-linejoin="round"/>
<path d="M43.001 39.174C41.2735 40.0682 31.1338 42.704 31.1338 42.704L30.2053 41.7851L42.3057 38.3984C42.7999 38.6445 43.1283 39.1087 43.001 39.174Z" fill="#EDEDED"/>
<path d="M14.0553 26.2119L26.0049 30.8929L31.7909 42.4307L18.9299 36.7591L13.3985 26.4932L14.0553 26.2119Z" fill="#EDEDED"/>
<path d="M13.3985 26.4932L25.3481 31.1742L31.1341 42.7119L18.2741 37.0404L13.3985 26.4932Z" fill="#F9F9F9" stroke="#DDDDDD" stroke-width="0.744192" stroke-linecap="round" stroke-linejoin="round"/>
</g>
</svg>
