<svg width="84" height="97" viewBox="0 0 84 97" fill="none" xmlns="http://www.w3.org/2000/svg">
<g clip-path="url(#clip0_117_1354)">
<path d="M32.97 56.863C32.97 54.3542 31.4327 52.1493 29.3515 50.7484C23.3006 46.6755 19.32 39.7627 19.32 31.9201C19.32 19.3942 29.4738 9.24011 42 9.24011C54.5262 9.24011 64.68 19.3942 64.68 31.9201C64.68 39.7627 60.6994 46.6755 54.6485 50.7484C52.5673 52.1493 51.03 54.3542 51.03 56.863V72.0301C51.03 73.8858 49.5255 75.3901 47.67 75.3901H36.33C34.4744 75.3901 32.97 73.8858 32.97 72.0301V56.863Z" fill="#FFC43B"/>
<path d="M41.79 61.7402H51.03V72.6602C51.03 74.0519 49.9017 75.1802 48.51 75.1802H41.79V61.7402Z" fill="#199AFF"/>
</g>
<g clip-path="url(#clip1_117_1354)">
<path d="M51.03 56.8629C51.03 54.3541 52.5673 52.1492 54.6485 50.7484C60.6994 46.6755 64.68 39.7626 64.68 31.9201C64.68 19.3942 54.5262 9.24005 42 9.24005C29.4738 9.24005 19.32 19.3942 19.32 31.9201C19.32 39.7626 23.3006 46.6755 29.3515 50.7484C31.4327 52.1492 32.97 54.3541 32.97 56.8629V72.0301C32.97 73.8858 34.4744 75.3901 36.33 75.3901H47.67C49.5255 75.3901 51.03 73.8858 51.03 72.0301V56.8629Z" fill="#FFD87C"/>
<path d="M42.21 61.7401H32.97V72.6601C32.97 74.0519 34.0982 75.1801 35.49 75.1801H42.21V61.7401Z" fill="#10BEFF"/>
</g>
<rect y="29.82" width="11.76" height="5.04" rx="2.52" fill="#5AECFF"/>
<rect x="9.23421" y="9.87122" width="13.8372" height="5.04" rx="2.52" transform="rotate(45 9.23421 9.87122)" fill="#ADF5FF"/>
<rect x="6.16463" y="51.7112" width="13.1397" height="5.04" rx="2.52" transform="rotate(-45 6.16463 51.7112)" fill="#ADF5FF"/>
<rect width="11.76" height="5.04" rx="2.52" transform="matrix(-1 0 0 1 83.6997 29.82)" fill="#ADF5FF"/>
<rect width="13.8372" height="5.04" rx="2.52" transform="matrix(-0.707107 0.707107 0.707107 0.707107 74.4655 9.87122)" fill="#5AECFF"/>
<rect width="13.1397" height="5.04" rx="2.52" transform="matrix(-0.707107 -0.707107 -0.707107 0.707107 77.5351 51.7112)" fill="#5AECFF"/>
<g clip-path="url(#clip2_117_1354)">
<rect x="39.4799" y="23.1" width="5.04" height="22.68" rx="2.52" fill="#199AFF"/>
<rect x="49.5599" y="25.6583" width="5.04" height="20.1323" rx="2.52" transform="rotate(60 49.5599 25.6583)" fill="#199AFF"/>
<rect x="51.8748" y="35.6862" width="5.04" height="20.1323" rx="2.52" transform="rotate(120 51.8748 35.6862)" fill="#199AFF"/>
</g>
<g clip-path="url(#clip3_117_1354)">
<rect x="39.48" y="23.1" width="5.04" height="22.68" rx="2.52" fill="#10BEFF"/>
<rect x="49.5599" y="25.6583" width="5.04" height="20.1323" rx="2.52" transform="rotate(60 49.5599 25.6583)" fill="#10BEFF"/>
<rect x="51.8748" y="35.6862" width="5.04" height="20.1323" rx="2.52" transform="rotate(120 51.8748 35.6862)" fill="#10BEFF"/>
</g>
<defs>
<clipPath id="clip0_117_1354">
<rect width="22.68" height="65.94" fill="white" transform="matrix(-1 0 0 1 64.68 9.24011)"/>
</clipPath>
<clipPath id="clip1_117_1354">
<rect width="22.68" height="65.94" fill="white" transform="translate(19.32 9.24005)"/>
</clipPath>
<clipPath id="clip2_117_1354">
<rect width="10.08" height="22.68" fill="white" transform="translate(42 23.1)"/>
</clipPath>
<clipPath id="clip3_117_1354">
<rect width="10.08" height="22.68" fill="white" transform="translate(31.9199 23.1)"/>
</clipPath>
</defs>
</svg>
