<svg width="435" height="172" viewBox="0 0 435 172" fill="none" xmlns="http://www.w3.org/2000/svg">
<g clip-path="url(#clip0_117_142)">
<path d="M86.971 84.9597C80.6395 88.1067 76.8077 89.1282 78.8113 109.205C80.8149 129.281 95.3829 152.738 95.3829 152.738L114.328 134.026C114.328 134.026 101.561 96.8172 98.8858 92.6981C93.6753 84.7043 89.4351 83.735 86.971 84.9597Z" fill="#6659DD"/>
<path d="M119.504 140.061C119.504 140.061 115.623 131.273 113.709 131.183C111.796 131.092 98.2507 141.173 96.3485 150.092C95.7372 152.97 92.8949 157.781 109.261 159.876C114.334 160.524 119.504 140.061 119.504 140.061Z" fill="#8382D8"/>
<path d="M180.077 155.532C180.077 155.532 178.866 156.322 175.289 155.471C174.138 155.197 172.512 153.17 170.799 152.069C169.412 151.176 166.688 151.33 163.758 151.679C162.097 151.871 160.529 149.671 159.479 148.436C149.064 151.456 120.046 159.914 108.515 158.956C105.587 158.714 113.966 140.236 119.04 139.031C122.877 138.122 145.459 138.932 159.775 140.763C164.871 141.499 169.901 142.638 174.817 144.168C176.698 145.355 180.077 155.532 180.077 155.532Z" fill="#FFB99E"/>
<path d="M80.3778 191.556C80.3778 191.556 75.3537 195.728 64.7957 195.524V195.508C63.6061 175.313 61.1283 137.376 58.5437 123.286C53.3661 95.0871 39.2503 70.7707 39.031 70.3945L66.0894 71.828C66.0894 71.828 80.112 81.7605 83.1736 123.311C86.2352 164.862 80.3778 191.556 80.3778 191.556Z" fill="#CCC7FF"/>
<path d="M66.0862 71.8274C68.6517 72.8434 85.4179 81.3507 90.7544 84.5169C96.091 87.6832 99.3171 112.455 96.5104 132.408C91.7713 166.048 92.166 179.204 96.8612 194.439C96.8612 194.439 86.1579 192.196 80.3828 191.731C80.3828 191.731 77.4418 168.665 81.4792 145.271C89.6581 97.8189 66.0862 71.8274 66.0862 71.8274Z" fill="#6659DD"/>
<path d="M39.0249 70.4001C39.0249 70.4001 12.2735 79.2644 3.46971 89.0734C-0.0934815 93.0304 20.2606 141.91 18.4817 156.157C16.7029 170.404 8.40885 201.86 8.40885 201.86C8.40885 201.86 21.1048 218.482 65.5241 208.582C65.5241 208.582 62.1336 142.882 58.5375 123.292C53.3215 94.8758 39.0249 70.4001 39.0249 70.4001Z" fill="#6659DD"/>
<path d="M95.5922 115.786C94.367 124.472 93.2049 144.895 93.9093 151.562" stroke="#8382D8" stroke-width="1.47009" stroke-miterlimit="10" stroke-linecap="round"/>
<path d="M9.35381 84.1482C3.46905 89.0636 -1.66469 88.6682 0.50886 110.436C2.68241 132.204 18.4811 157.638 18.4811 157.638L39.0243 137.348C39.0243 137.348 28.4251 97.9169 26.3831 93.0207C23.3791 85.8013 15.2386 79.2437 9.35381 84.1482Z" fill="#6659DD"/>
<path d="M39.3094 137.348C39.3094 137.348 32.7778 105.68 28.3732 99.0154" stroke="#8382D8" stroke-width="1.47009" stroke-miterlimit="10" stroke-linecap="round"/>
<path d="M46.9916 141.513C46.9916 141.513 40.4134 134.352 38.333 134.266C36.2527 134.181 22.1616 144.292 19.1466 154.642C18.2558 157.707 13.3359 162.9 32.7882 167.9C43.6066 170.687 46.9916 141.513 46.9916 141.513Z" fill="#8382D8"/>
<path d="M130.764 154.761C130.764 154.761 129.755 156.172 128.283 155.203C127.365 154.599 125.701 153.006 124.446 152.218C125.569 153.995 126.602 155.828 127.54 157.71C125.916 158.43 124.168 158.831 122.393 158.891C120.924 158.954 118.668 156.419 116.407 155.277C114.578 154.357 111.24 154.903 107.66 155.716C104.081 156.529 100.224 151.221 100.224 151.221V151.191C93.4322 153.484 49.8078 165.745 33.5705 164.888C29.9279 164.696 39.6362 142.98 45.8882 141.294C51.1672 139.869 85.7248 140.234 102.411 142.607C108.85 143.334 118.649 145.973 120.485 146.391C122.16 146.619 126.016 149.37 127.088 150.26C128.206 151.191 130.764 154.761 130.764 154.761Z" fill="#FFD2BC"/>
<path d="M125.678 157.762C125.678 157.762 121.139 151.234 119.889 150.787C117.696 149.996 114.821 148.949 114.821 148.949" stroke="#FFB99E" stroke-width="1.47009" stroke-miterlimit="10" stroke-linecap="round"/>
<path d="M123.504 158.377C123.504 158.377 119.393 152.934 118.159 152.486C115.967 151.695 113.089 150.649 113.089 150.649" stroke="#FFB99E" stroke-width="1.47009" stroke-miterlimit="10" stroke-linecap="round"/>
<path d="M66.5456 68.285L60.3484 85.7445C60.3484 85.7445 43.4972 87.6036 39.0925 70.3391L45.0294 53.3135L66.5456 68.285Z" fill="#FFD2BC"/>
<path d="M66.5489 68.2855L63.7477 76.1722C60.02 77.872 55.2508 77.8198 50.5912 71.6165C46.3675 65.9816 45.4575 57.7132 44.6599 54.6458L45.0189 53.325L66.5489 68.2855Z" fill="#FFB99E"/>
<path d="M44.8645 53.2997C44.8645 53.2997 50.0339 65.1929 56.3517 67.1124C62.3817 68.9412 63.8181 71.526 70.5222 67.1124C71.2869 65.7695 77.5445 49.9165 75.8835 39.443C74.735 32.1962 71.6707 31.2048 65.9257 31.7678C60.1807 32.3307 58.1607 32.9651 51.1384 30.8094C49.1677 30.2053 52.5528 41.2829 46.6187 45.5036C46.6187 45.5036 42.1674 44.0042 41.2081 45.5393C40.2488 47.0743 44.8645 53.2997 44.8645 53.2997Z" fill="#FFD2BC"/>
<path d="M44.2235 55.5162C44.2235 55.5162 29.0525 46.2291 29.7871 33.6576C30.1078 28.2753 41.4853 13.8036 48.4555 13.2049C55.4256 12.6063 66.181 16.1981 69.5606 19.1913C72.9401 22.1845 77.5668 25.4029 76.3608 36.865C76.2926 37.4913 76.1433 38.1061 75.9168 38.6939C74.6724 32.1473 71.6272 31.2356 66.0933 31.7903C60.3374 32.3669 58.3255 32.9848 51.2923 30.8319C49.3216 30.225 52.7094 41.3054 46.7726 45.5261C46.7726 45.5261 42.3213 44.0267 41.3647 45.559C40.4081 47.0913 45.0184 53.3194 45.0184 53.3194L44.2235 55.5162Z" fill="#853901"/>
<path d="M43.056 15.5732C43.056 15.5732 44.473 4.4324 37.1027 4.82508C29.7324 5.21777 25.251 12.2092 24.5575 16.7759C23.6695 22.6443 34.3015 24.3743 34.3015 24.3743L43.056 15.5732Z" fill="#853901"/>
<path d="M27.0736 24.2822C29.5706 27.237 34.3014 24.3728 34.3014 24.3728" stroke="#853901" stroke-width="1.47009" stroke-miterlimit="10"/>
<path d="M45.0895 15.1415C45.0895 15.1415 46.7148 2.76776 38.2591 3.17692C29.8034 3.58608 24.2996 13.7191 25.4426 16.8578C26.5855 19.9966 35.0358 24.3738 35.0358 24.3738L45.0895 15.1415Z" stroke="#853901" stroke-width="1.47009" stroke-miterlimit="10"/>
<path d="M71.8111 31.7352C70.3118 31.1365 68.3685 32.559 66.0908 33.1082C58.6903 34.8931 53.6087 33.932 50.865 30.3923" stroke="#853901" stroke-width="1.47009" stroke-miterlimit="10"/>
<path d="M189.29 358.945L213.958 170.455H218.404L243.072 358.945" stroke="#C4C4C4" stroke-width="1.47009" stroke-miterlimit="10" stroke-linecap="round"/>
<path d="M232.832 161.99H220.498L218.579 159.277C216.702 156.61 213.226 154.968 209.463 154.968H191.354C187.59 154.968 184.115 156.616 182.237 159.277L180.319 161.99H168.464L173.203 156.02C175.322 153.351 179.233 151.709 183.476 151.709H217.817C222.057 151.709 225.977 153.356 228.093 156.02L232.832 161.99Z" fill="#D1D0FF" stroke="#C4C4C4" stroke-width="1.47009" stroke-linejoin="round"/>
<path d="M233.06 161.99H228.057L226.139 159.277C224.259 156.61 220.783 154.968 217.023 154.968H191.59C187.829 154.968 184.354 156.616 182.473 159.277L180.555 161.99H168.692L173.431 156.02C175.55 153.351 179.461 151.709 183.707 151.709H218.048C222.288 151.709 226.205 153.356 228.321 156.02L233.06 161.99Z" fill="white" stroke="#C4C4C4" stroke-width="1.47009" stroke-miterlimit="10"/>
<path d="M239.983 134.892H123.867C120.783 134.892 118.56 131.822 119.415 128.743L136.735 66.5067C137.163 64.8769 138.113 63.4329 139.44 62.397C140.767 61.361 142.396 60.7904 144.078 60.7729H260.194C263.278 60.7729 265.504 63.843 264.646 66.9186L247.326 129.158C246.896 130.787 245.945 132.229 244.619 133.265C243.293 134.301 241.664 134.872 239.983 134.892Z" fill="white" stroke="#C4C4C4" stroke-width="1.47009" stroke-miterlimit="10"/>
<path d="M172.383 115.952L169.453 133.955H179.594L175.107 115.921C175.009 115.518 172.448 115.542 172.383 115.952Z" fill="#E2E2FF"/>
<path d="M213.606 151.52H184.827L177.719 122.906C176.935 119.761 175.921 118.537 173.493 117.845V116.197H197.92C199.891 116.197 201.805 116.858 203.358 118.073C204.911 119.289 206.014 120.99 206.491 122.906L213.606 151.52Z" fill="#D1D0FF" stroke="#C4C4C4" stroke-width="1.47009" stroke-linejoin="round"/>
<path d="M216.463 151.52H187.683L180.576 122.906C179.595 118.965 178.257 116.197 174.201 116.197H200.788C202.756 116.201 204.668 116.862 206.218 118.078C207.769 119.293 208.87 120.992 209.348 122.906L216.463 151.52Z" fill="white" stroke="#C4C4C4" stroke-width="1.47009" stroke-miterlimit="10"/>
<path d="M142.023 157.075L103.768 159.275V161.991H142.023V157.075Z" fill="white" stroke="#C4C4C4" stroke-width="1.47009" stroke-linejoin="round"/>
<path d="M165.945 157.075H142.022V161.886H165.945V157.075Z" fill="#D1D0FF" stroke="#C4C4C4" stroke-width="1.47009" stroke-linejoin="round"/>
<path d="M62.5436 170.05H238.174V161.991H62.1462L62.5436 170.05Z" fill="white" stroke="#C4C4C4" stroke-width="1.47009" stroke-linejoin="round"/>
<path d="M52.7649 28.144C51.2886 29.0835 50.6748 30.621 50.6302 32.5374C50.5856 34.4539 50.5613 37.2671 48.9435 39.5918" stroke="#B75105" stroke-width="0.999658" stroke-linecap="round" stroke-linejoin="round"/>
<path d="M51.9994 28.504C54.9107 26.8758 56.4715 24.9137 59.1148 23.1949C61.7582 21.4761 64.2626 22.3497 66.2599 24.074C67.11 24.778 68.2037 25.1161 69.3019 25.0145C70.4001 24.9128 71.4134 24.3796 72.1204 23.5315" stroke="#B75105" stroke-width="0.999658" stroke-linecap="round" stroke-linejoin="round"/>
<path d="M40.1438 39.5821C43.544 35.9229 44.2853 33.1776 42.3525 32.812C40.4197 32.4464 36.5291 33.9695 36.8503 35.6631C37.1714 37.3567 39.6737 36.7412 39.6021 35.9152" stroke="#B75105" stroke-width="0.999658" stroke-linecap="round" stroke-linejoin="round"/>
<path d="M61.6177 48.0104C61.6166 47.8648 61.6586 47.7222 61.7385 47.6005C61.8184 47.4789 61.9326 47.3838 62.0665 47.3273C62.2005 47.2708 62.3481 47.2554 62.4908 47.2831C62.6335 47.3108 62.7647 47.3804 62.8679 47.4829C62.971 47.5855 63.0415 47.7164 63.0702 47.8592C63.099 48.0019 63.0848 48.15 63.0295 48.2846C62.9741 48.4193 62.8801 48.5344 62.7594 48.6155C62.6386 48.6965 62.4966 48.7397 62.3512 48.7397C62.1577 48.7398 61.972 48.6631 61.8346 48.5265C61.6971 48.3899 61.6192 48.2044 61.6177 48.0104Z" fill="black"/>
<path d="M70.42 48.0104C70.4189 47.8648 70.461 47.7222 70.5409 47.6005C70.6208 47.4789 70.7349 47.3838 70.8689 47.3273C71.0028 47.2708 71.1505 47.2554 71.2931 47.2831C71.4358 47.3108 71.567 47.3804 71.6702 47.4829C71.7734 47.5855 71.8438 47.7164 71.8726 47.8592C71.9014 48.0019 71.8871 48.15 71.8318 48.2846C71.7765 48.4193 71.6825 48.5344 71.5617 48.6155C71.441 48.6965 71.2989 48.7397 71.1536 48.7397C70.96 48.7398 70.7743 48.6631 70.6369 48.5265C70.4995 48.3899 70.4215 48.2044 70.42 48.0104Z" fill="black"/>
<path d="M71.8905 43.3126C71.753 43.9932 75.8774 44.5787 76.2648 44.2211C76.6522 43.8634 72.1467 42.0212 71.8905 43.3126Z" fill="black"/>
<path d="M61.6132 43.3126C61.7965 43.9932 56.2974 44.5787 55.7808 44.2211C55.2642 43.8634 61.2716 42.0212 61.6132 43.3126Z" fill="black"/>
<path d="M74.3754 53.0248C77.3591 53.0248 79.7778 50.4368 79.7778 47.2443C79.7778 44.0519 77.3591 41.4639 74.3754 41.4639C71.3918 41.4639 68.9731 44.0519 68.9731 47.2443C68.9731 50.4368 71.3918 53.0248 74.3754 53.0248Z" stroke="#FFB000" stroke-width="1.47009" stroke-miterlimit="10"/>
<path d="M65.2195 46.8445H68.747" stroke="#FFB000" stroke-width="1.47009" stroke-miterlimit="10"/>
<path d="M59.4902 53.0248C62.6767 53.0248 65.2598 50.4368 65.2598 47.2443C65.2598 44.0519 62.6767 41.4639 59.4902 41.4639C56.3037 41.4639 53.7206 44.0519 53.7206 47.2443C53.7206 50.4368 56.3037 53.0248 59.4902 53.0248Z" stroke="#FFB000" stroke-width="1.47009" stroke-miterlimit="10"/>
<path d="M46.9468 45.0645L53.5487 47.2696" stroke="#FFB000" stroke-width="1.47009"/>
</g>
<path d="M317.545 134.279C314.369 135.877 310.258 132.89 305.689 128.847L310.639 124.4C310.639 124.4 318.404 131.653 317.545 134.279Z" fill="#FAC536"/>
<path d="M275.22 115.155L286.681 138.56H310.787L314.802 127.32L301.157 115.155H275.22Z" fill="#FEBD9D"/>
<path d="M293.898 115.155L305.185 132.829" stroke="#EF8A66" stroke-width="0.735043" stroke-linecap="round" stroke-linejoin="round"/>
<path d="M298.194 116.98C306.369 121.655 317.545 134.279 317.545 134.279L320.547 140.253L322.294 143.727H381.6C382.987 138.718 384.179 132.194 385.067 126.907C385.76 122.815 386.204 119.467 386.384 118.154L386.46 117.563C387.972 118.904 388.707 118.953 388.707 118.953L391.48 126.296L391.736 126.991C401.581 120.391 419.594 119.224 419.594 119.224L417.174 111.033C417.901 109.349 418.104 107.485 417.756 105.683C417.361 103.634 411.94 94.1299 406.476 86.1544C404.322 82.9101 401.933 79.8287 399.328 76.9353C399.113 76.713 398.891 76.4976 398.67 76.2962C392.076 70.2173 381.149 71.0996 373.967 71.7526C372.899 71.8499 371.887 71.9194 370.944 71.961C368.821 72.0729 366.695 72.0729 364.572 71.961C362.832 71.8707 361.875 71.7387 361.875 71.7387C361.653 70.7244 361.445 69.6545 361.237 68.4804C359.941 60.887 359.213 50.7509 360.371 44.0884L342.123 52.2515C341.811 55.5723 340.591 62.86 339.752 67.6537C339.28 70.3354 338.94 72.2389 338.94 72.2389C337.471 71.968 336.084 71.7248 334.781 71.5025C316.255 68.3554 311.485 69.5364 306.355 78.5888C306.216 78.825 306.084 79.0751 305.946 79.3391C302.784 85.5917 300.628 98.0968 299.428 106.934C298.576 112.742 298.194 116.98 298.194 116.98Z" fill="#FED76E"/>
<path d="M298.195 116.981C306.209 121.573 317.129 133.815 317.538 134.266C317.392 133.96 315.007 129.014 314.765 127.319C314.522 125.624 315.368 120.608 316.678 115.89L299.345 106.963C298.576 112.743 298.195 116.981 298.195 116.981Z" fill="#FAC536"/>
<path d="M359.915 119.684C360.047 126.34 375.605 127.278 385.047 126.909C385.741 122.817 386.185 119.469 386.365 118.156L386.441 117.565C383.009 114.077 380.173 110.047 378.045 105.637C372.498 109.43 379.612 113.327 379.882 115.155C380.617 120.164 359.728 110.18 359.915 119.684Z" fill="#FAC536"/>
<path d="M305.878 79.368C311.286 77.4852 317.359 77.5478 321.567 84.2797C331.045 99.4388 348.835 111.263 366.633 93.3668C369.066 90.8544 371.729 88.5751 374.585 86.5584C385.103 79.3471 393.998 80.8061 406.436 86.1486C404.282 82.9042 401.893 79.8229 399.288 76.9295C399.073 76.7071 398.851 76.4918 398.629 76.2903C392.036 70.2114 381.109 71.0937 373.927 71.7467C372.859 71.844 371.847 71.9135 370.904 71.9552C368.781 72.067 366.655 72.067 364.532 71.9552C362.792 71.8649 361.835 71.7329 361.835 71.7329C361.613 70.7186 361.405 69.6487 361.197 68.4746C359.901 60.8811 359.173 50.745 360.331 44.0825L342.083 52.2456C341.771 55.5664 340.55 62.8542 339.711 67.6478C339.24 70.3295 338.9 72.2331 338.9 72.2331C337.43 71.9621 336.044 71.719 334.74 71.4967C316.215 68.3495 311.445 69.5306 306.315 78.5829C306.148 78.8539 306.016 79.104 305.878 79.368Z" fill="#FAC536"/>
<path d="M334.712 71.533C334.767 76.2294 335.274 84.7885 337.312 90.8396C339.947 98.6901 343.053 95.5012 346.464 92.4027C349.549 89.5821 360.795 80.1963 370.896 71.9776C368.774 72.0894 366.647 72.0894 364.525 71.9776C362.784 71.8873 361.828 71.7553 361.828 71.7553C361.606 70.741 361.398 69.6711 361.19 68.497C353.861 68.0176 345.07 67.5452 339.697 67.6703C339.226 70.3519 338.886 72.2555 338.886 72.2555C337.43 71.9707 336.043 71.7553 334.712 71.533Z" fill="#FAC536"/>
<path d="M341.895 89.4808C341.895 89.4808 357.509 78.8375 364.525 71.9666C362.785 71.8763 361.828 71.7443 361.828 71.7443C360.157 64.0536 358.992 51.7708 360.323 44.094L348.461 49.3948L342.075 52.2571C341.847 54.7095 341.112 59.3642 340.411 63.5465C339.635 68.1734 338.893 72.2445 338.893 72.2445C338.325 85.7362 341.895 89.4808 341.895 89.4808Z" fill="#FEBD9D"/>
<path d="M317.547 134.278C317.401 133.973 315.016 129.026 314.774 127.331C314.531 125.636 315.377 120.62 316.687 115.903C316.756 115.66 316.826 115.409 316.902 115.166" stroke="#FAC536" stroke-width="0.735043" stroke-linecap="round" stroke-linejoin="round"/>
<path d="M340.419 63.5663C352.74 64.3235 351.353 51.0541 351.249 50.7207L348.476 49.4146L342.09 52.2769C341.855 54.7293 341.12 59.384 340.419 63.5663Z" fill="#F4A789"/>
<path d="M419.553 119.21C419.9 120.231 419.9 121.343 412.169 123.524L410.977 118.446C410.977 118.446 418.007 116.542 419.553 119.21Z" fill="#FAC536"/>
<path d="M415.317 116.535C417.134 122.468 423.471 142.338 423.471 142.338C425.19 149.625 403.621 154.384 395.946 142.004L391.724 122.072C398.702 117.522 407.049 115.563 415.317 116.535Z" fill="#FEBD9D"/>
<path d="M379.854 108.991C379.881 109.031 379.905 109.073 379.924 109.116C380.839 110.582 381.858 112.076 382.967 113.618L383.044 113.722C384.084 115.082 385.219 116.366 386.441 117.564C387.952 118.905 388.687 118.954 388.687 118.954L391.696 126.978C392.001 126.776 392.313 126.575 392.639 126.38C398.13 123.046 405.687 121.212 411.359 120.239C413.224 119.919 414.888 119.697 416.212 119.544C418.25 119.301 419.512 119.218 419.512 119.218L417.092 111.027C417.819 109.343 418.022 107.479 417.675 105.677C417.28 103.628 411.858 94.124 406.395 86.1485C404.24 82.9041 401.851 79.8228 399.246 76.9294C399.032 76.7071 398.81 76.4917 398.588 76.2902C389.242 71.9065 377.095 72.9833 374.703 85.6205C374.641 85.9331 374.585 86.2457 374.544 86.5584C373.213 94.9716 375.286 101.648 379.854 108.991Z" fill="#FED76E"/>
<path d="M374.585 86.5584C385.103 79.347 393.998 80.806 406.436 86.1485C404.282 82.9041 401.893 79.8228 399.288 76.9294C399.073 76.7071 398.851 76.4917 398.629 76.2902C389.283 71.9065 377.136 72.9833 374.744 85.6205C374.682 85.9539 374.627 86.2666 374.585 86.5584Z" fill="#FAC536"/>
<path d="M413.293 112.766C406.782 112.766 400.418 115.434 399.343 115.941" stroke="#FAC536" stroke-width="0.735043" stroke-linecap="round" stroke-linejoin="round"/>
<path d="M386.441 117.567C385.219 116.368 384.084 115.084 383.044 113.725L382.968 113.62C381.872 112.177 380.856 110.674 379.924 109.119C379.905 109.075 379.881 109.033 379.855 108.994C379.12 107.75 378.51 106.604 378.045 105.638C377.664 104.888 377.386 104.249 377.192 103.776" stroke="#FAC536" stroke-width="0.735043" stroke-linecap="round" stroke-linejoin="round"/>
<path d="M330.081 111.763C329.832 115.049 331.759 115.89 331.759 115.89C331.496 123.879 333.839 127.7 337.736 128.715C341.632 129.729 351.699 131.869 351.699 131.869C352.742 132.294 353.749 132.805 354.708 133.397C355.831 134.036 357.225 134.856 358.868 135.829C363.873 138.761 371.756 141.498 381.123 146.444C397.721 155.212 409.549 150.46 410.339 141.157C411.768 124.129 390.185 123.018 382.302 121.705C376.589 120.746 367.742 118.474 362.258 117.203C360.178 116.731 358.618 116.397 357.883 116.328C355.249 116.091 349.785 113.201 340.197 110.179C330.608 107.157 322.864 105.406 322.864 107.525C322.864 109.644 330.081 111.763 330.081 111.763Z" fill="#FEBD9D"/>
<path d="M340.183 110.179C330.602 107.143 322.85 105.406 322.85 107.525C322.85 109.644 330.109 111.784 330.109 111.784C329.86 115.07 331.787 115.911 331.787 115.911C331.524 123.9 333.867 127.721 337.764 128.735" stroke="#EF8A66" stroke-width="0.735043" stroke-linecap="round" stroke-linejoin="round"/>
<path d="M406.318 129.631C402.159 125.595 395.496 123.851 389.866 122.864" stroke="#EF8A66" stroke-width="0.735043" stroke-linecap="round" stroke-linejoin="round"/>
<path d="M354.708 133.399C355.831 134.039 357.225 134.858 358.868 135.831C362.73 131.517 364.733 124.833 362.258 117.184C360.178 116.712 358.618 116.379 357.883 116.309C359.672 121.207 360.005 129.196 354.708 133.399Z" fill="#683F1D"/>
<path d="M330.081 111.761L336.008 113.685" stroke="#EF8A66" stroke-width="0.735043" stroke-linecap="round" stroke-linejoin="round"/>
<path d="M331.758 115.893L335.405 117.22" stroke="#EF8A66" stroke-width="0.735043" stroke-linecap="round" stroke-linejoin="round"/>
<path d="M335.01 121.05L331.904 120.203" stroke="#EF8A66" stroke-width="0.735043" stroke-linecap="round" stroke-linejoin="round"/>
<path d="M356.109 126.159C356.109 127.152 356.403 128.123 356.953 128.949C357.504 129.775 358.287 130.419 359.203 130.799C360.119 131.179 361.127 131.279 362.099 131.085C363.071 130.891 363.965 130.413 364.666 129.71C365.367 129.008 365.844 128.113 366.038 127.139C366.231 126.164 366.132 125.154 365.752 124.236C365.373 123.319 364.73 122.534 363.906 121.982C363.082 121.43 362.113 121.136 361.121 121.136C359.792 121.136 358.517 121.665 357.577 122.607C356.637 123.549 356.109 124.827 356.109 126.159Z" fill="white" stroke="#683F1D" stroke-width="0.735043" stroke-linecap="round" stroke-linejoin="round"/>
<path d="M286.678 33.1973V136.907H434.257V33.1973C434.258 31.8236 433.989 30.4633 433.465 29.1939C432.941 27.9246 432.173 26.7711 431.204 25.7995C430.235 24.8278 429.084 24.0571 427.818 23.5312C426.551 23.0053 425.194 22.7346 423.823 22.7346H297.113C295.742 22.7346 294.385 23.0053 293.118 23.5312C291.852 24.0571 290.701 24.8278 289.732 25.7995C288.763 26.7711 287.995 27.9246 287.471 29.1939C286.947 30.4633 286.678 31.8236 286.678 33.1973Z" stroke="#DDDDDD" stroke-width="0.735043" stroke-linecap="round" stroke-linejoin="round"/>
<path d="M286.678 33.1973V33.6628H434.257V33.1973C434.258 31.8236 433.989 30.4633 433.465 29.1939C432.941 27.9246 432.173 26.7711 431.204 25.7995C430.235 24.8278 429.084 24.0571 427.818 23.5312C426.551 23.0053 425.194 22.7346 423.823 22.7346H297.113C295.742 22.7346 294.385 23.0053 293.118 23.5312C291.852 24.0571 290.701 24.8278 289.732 25.7995C288.763 26.7711 287.995 27.9246 287.471 29.1939C286.947 30.4633 286.678 31.8236 286.678 33.1973Z" stroke="#DDDDDD" stroke-width="0.735043" stroke-linecap="round" stroke-linejoin="round"/>
<path d="M306.653 28.2044C306.653 28.5808 306.764 28.9489 306.973 29.2619C307.182 29.575 307.478 29.8189 307.825 29.963C308.172 30.1071 308.554 30.1448 308.923 30.0713C309.291 29.9979 309.63 29.8166 309.896 29.5504C310.161 29.2842 310.342 28.945 310.415 28.5757C310.489 28.2065 310.451 27.8237 310.307 27.4759C310.164 27.1281 309.92 26.8308 309.608 26.6216C309.295 26.4124 308.928 26.3008 308.552 26.3008C308.303 26.3008 308.056 26.35 307.825 26.4457C307.595 26.5413 307.385 26.6816 307.209 26.8583C307.033 27.0351 306.893 27.2449 306.797 27.4759C306.702 27.7068 306.653 27.9544 306.653 28.2044Z" fill="#DDDDDD"/>
<path d="M302.36 30.1079C301.311 30.1079 300.46 29.2557 300.46 28.2044C300.46 27.153 301.311 26.3008 302.36 26.3008C303.409 26.3008 304.26 27.153 304.26 28.2044C304.26 29.2557 303.409 30.1079 302.36 30.1079Z" fill="#EDEDED"/>
<path d="M294.273 28.2044C294.273 28.5811 294.384 28.9495 294.593 29.2626C294.802 29.5758 295.099 29.8198 295.447 29.9637C295.794 30.1076 296.177 30.1448 296.545 30.0708C296.914 29.9968 297.253 29.8148 297.518 29.5479C297.783 29.281 297.964 28.9412 298.036 28.5715C298.109 28.2017 298.07 27.8188 297.925 27.4711C297.781 27.1234 297.536 26.8266 297.223 26.6182C296.909 26.4099 296.541 26.2994 296.165 26.3008C295.916 26.3008 295.67 26.3501 295.439 26.4458C295.209 26.5416 295 26.6819 294.825 26.8588C294.649 27.0356 294.509 27.2455 294.415 27.4764C294.32 27.7073 294.272 27.9547 294.273 28.2044Z" fill="#DDDDDD"/>
<path d="M322.489 119.134C320.118 116.612 316.159 116.3 316.159 116.3L311.577 121.045C311.577 121.045 310.273 107.032 316.159 87.8088C317.276 97.1947 320.721 112.298 322.489 119.134Z" fill="#FED76E" stroke="#FED76E" stroke-width="0.735043" stroke-linecap="round" stroke-linejoin="round"/>
<path d="M277.27 84.9642C270.649 106.015 270.968 121.049 270.968 121.049H311.575C311.575 121.049 317.045 100.158 316.158 87.8126C316.158 87.8126 316.927 84.9017 314.383 84.6446C311.839 84.3876 277.27 84.9642 277.27 84.9642Z" fill="#F9F9F9" stroke="#FAC536" stroke-width="0.735043" stroke-linecap="round" stroke-linejoin="round"/>
<path d="M309.809 84.7557C309.812 84.6979 309.812 84.6399 309.809 84.582C309.75 84.0198 309.53 83.4867 309.175 83.0473C308.82 82.6079 308.345 82.281 307.808 82.1062C307.272 81.9314 306.696 81.9162 306.151 82.0623C305.606 82.2085 305.115 82.5098 304.738 82.9298C304.36 83.3498 304.112 83.8705 304.023 84.4288C303.935 84.9872 304.01 85.5593 304.239 86.0759C304.468 86.5925 304.842 87.0315 305.315 87.3397C305.788 87.6479 306.34 87.8121 306.904 87.8125" stroke="#FED76E" stroke-width="0.735043" stroke-linecap="round" stroke-linejoin="round"/>
<path d="M279.448 91.728H307.902V94.9863H279.448V91.728Z" stroke="#FAC536" stroke-width="0.735043" stroke-linecap="round" stroke-linejoin="round"/>
<path d="M300.85 117.5L301.21 114.756L303.041 100.632L303.346 98.3118" stroke="#FED76E" stroke-width="0.735043" stroke-linecap="round" stroke-linejoin="round"/>
<path d="M291.616 117.5L291.997 114.562L293.786 100.813L294.112 98.3118" stroke="#FED76E" stroke-width="0.735043" stroke-linecap="round" stroke-linejoin="round"/>
<path d="M284.871 98.3032L282.382 117.506" stroke="#FED76E" stroke-width="0.735043" stroke-linecap="round" stroke-linejoin="round"/>
<path d="M279.141 102.145H293.61H302.845H306.894" stroke="#FED76E" stroke-width="0.735043" stroke-linecap="round" stroke-linejoin="round"/>
<path d="M277.736 110.529H292.524H301.759H305.496" stroke="#FED76E" stroke-width="0.735043" stroke-linecap="round" stroke-linejoin="round"/>
<path d="M300.213 98.9666C304.803 101.315 307.014 111.104 299.229 111.757C287.754 112.715 287.206 98.5567 297.259 99.8906" fill="#F9F9F9"/>
<path d="M300.213 98.9666C304.803 101.315 307.014 111.104 299.229 111.757C287.754 112.715 287.206 98.5567 297.259 99.8906" stroke="#FAC536" stroke-width="0.735043" stroke-linecap="round" stroke-linejoin="round"/>
<path d="M292.525 110.53H301.76L302.849 102.145H293.614L292.525 110.53Z" fill="#FED76E"/>
<path d="M275.933 109.265C275.739 112.454 269.693 108.946 270.109 106.153C270.525 103.36 276.161 105.569 275.933 109.265Z" fill="#FEBD9D" stroke="#EF8A66" stroke-width="0.735043" stroke-linecap="round" stroke-linejoin="round"/>
<path d="M276.958 104.972C276.736 108.167 269.928 104.659 270.371 101.859C270.815 99.0594 277.214 101.283 276.958 104.972Z" fill="#FEBD9D" stroke="#EF8A66" stroke-width="0.735043" stroke-linecap="round" stroke-linejoin="round"/>
<path d="M277.438 101.766C277.202 104.954 269.901 101.446 270.38 98.6532C270.858 95.8604 277.708 98.0696 277.438 101.766Z" fill="#FEBD9D" stroke="#EF8A66" stroke-width="0.735043" stroke-linecap="round" stroke-linejoin="round"/>
<path d="M278.464 97.8144C278.221 100.711 270.692 97.5296 271.184 94.9938C271.677 92.458 278.748 94.4658 278.464 97.8144Z" fill="#FEBD9D" stroke="#EF8A66" stroke-width="0.735043" stroke-linecap="round" stroke-linejoin="round"/>
<path d="M300.213 98.9666C304.803 101.315 307.014 111.104 299.229 111.757C287.754 112.715 287.206 98.5567 297.259 99.8906" stroke="#FAC536" stroke-width="0.735043" stroke-linecap="round" stroke-linejoin="round"/>
<path d="M327.614 24.6298C328.217 29.6527 334.922 32.5983 334.922 32.5983L353.523 48.869C355.43 51.9188 360.623 53.4542 363.784 50.9045C365.636 49.4178 366.787 46.5347 366.163 41.7341C366.68 41.7343 367.186 41.5821 367.619 41.2964C369.761 39.9695 371.085 35.7385 367.868 30.7156C368.097 30.9379 372.382 35.1133 376.791 33.8489C377.549 33.6459 378.256 33.2839 378.864 32.7869C379.473 32.2899 379.969 31.6691 380.32 30.9657C381.707 28.1243 381.221 23.3862 377.263 16.8905C374.448 12.2566 370.53 11.4229 367.175 12.2913C363.375 13.264 360.297 16.3902 360.297 18.662C359.459 17.6312 358.486 16.7176 357.406 15.9456C355.922 14.9105 354.085 14.2088 352.442 15.2092C352.442 15.2092 346.66 12.0899 343.373 14.042C339.283 16.4597 340.184 18.141 336.204 18.405C333.244 18.5995 328.578 19.3498 327.725 22.7123C327.563 23.338 327.525 23.9895 327.614 24.6298Z" fill="#DD6819"/>
<path d="M360.298 18.6662L367.855 30.7059C368.395 31.2119 368.972 31.6764 369.582 32.0954C371.28 33.2764 373.998 34.6242 376.771 33.8322C377.53 33.6292 378.236 33.2672 378.845 32.7702C379.453 32.2732 379.949 31.6525 380.3 30.9491C371.689 30.7684 368.66 28.3577 370.428 23.6127C372.071 19.1942 373.776 13.6433 367.155 12.2747C364.565 12.921 362.314 14.524 360.853 16.7626C360.508 17.339 360.317 17.9945 360.298 18.6662Z" fill="#CC5E0D"/>
<path d="M327.615 24.6274C328.218 29.6503 334.922 32.596 334.922 32.596L353.524 48.8666C355.43 51.9165 360.623 53.4518 363.785 50.9021C364.878 48.275 365.147 45.3764 364.555 42.5925C363.963 39.8086 362.538 37.2716 360.471 35.3193C356.658 31.8456 359.452 29.2543 359.084 24.683C358.717 20.1116 350.369 13.074 344.393 19.3891C339.706 24.3425 330.887 18.3539 327.691 22.7099C327.54 23.3379 327.514 23.9894 327.615 24.6274Z" fill="#CC5E0D"/>
<path d="M339.021 57.8767C347.382 57.0152 355.868 48.3241 355.868 48.3241C359.058 51.9645 365.346 46.5247 362.233 41.9951C360.195 39.0147 357.005 40.7862 356.229 42.4119C354.935 41.5749 353.987 40.2981 353.557 38.8163C353.128 37.3344 353.247 35.747 353.893 34.3461C354.577 32.626 354.873 30.7754 354.759 28.9272C351.93 24.6198 344.429 23.6333 344.429 23.6333C343.32 24.8048 341.971 25.7218 340.475 26.3214C338.979 26.921 337.371 27.189 335.762 27.107C335.762 27.107 333.19 32.1438 331.096 37.2639C331.055 37.3751 330.999 37.5002 330.958 37.6113C330.368 39.0702 329.821 40.5292 329.391 41.8631C329.349 41.9951 329.315 42.1132 329.273 42.2382C328.929 43.2917 328.674 44.3724 328.51 45.4687C327.838 50.978 330.666 58.7729 339.021 57.8767Z" fill="#FEBD9D"/>
<path d="M335.547 34.962C335.547 35.1406 335.494 35.3152 335.395 35.4638C335.296 35.6123 335.155 35.728 334.991 35.7964C334.826 35.8648 334.645 35.8826 334.47 35.8478C334.295 35.8129 334.135 35.7269 334.008 35.6006C333.882 35.4743 333.797 35.3134 333.762 35.1382C333.727 34.963 333.745 34.7814 333.813 34.6164C333.881 34.4513 333.997 34.3103 334.145 34.2111C334.293 34.1118 334.468 34.0588 334.646 34.0588C334.884 34.0607 335.112 34.1564 335.281 34.3254C335.45 34.4944 335.545 34.723 335.547 34.962Z" fill="black"/>
<path d="M340.185 36.7726C339.687 36.7726 339.283 36.3682 339.283 35.8695C339.283 35.3707 339.687 34.9663 340.185 34.9663C340.683 34.9663 341.086 35.3707 341.086 35.8695C341.086 36.3682 340.683 36.7726 340.185 36.7726Z" fill="black"/>
<path d="M341.246 41.9836C339.44 42.8915 337.436 43.3332 335.416 43.2689C335.416 43.2689 335.804 46.6522 338.702 45.7491C341.233 44.964 341.246 41.9836 341.246 41.9836Z" fill="white" stroke="black" stroke-width="0.735043" stroke-linecap="round" stroke-linejoin="round"/>
<path d="M344.101 33.2196C343.768 34.3311 339.602 33.2196 340.059 31.4132C340.517 29.6069 344.58 31.6773 344.101 33.2196Z" fill="black"/>
<path d="M337.024 30.9787C337.086 32.1876 332.822 32.2709 332.822 31.2288C332.822 30.284 336.913 29.0265 337.024 30.9787Z" fill="black"/>
<path d="M366.163 41.7344C365.646 38.3153 363.995 35.1704 361.476 32.8071" stroke="#B15008" stroke-width="0.735043" stroke-linecap="round" stroke-linejoin="round"/>
<path d="M352.442 15.2034C353.753 16.2524 355.715 19.6636 356.477 21.1989" stroke="#B15008" stroke-width="0.735043" stroke-linecap="round" stroke-linejoin="round"/>
<path d="M353.608 24.6371C352.062 20.5104 349.087 18.6485 347.694 20.2325C346.3 21.8165 344.428 23.6228 344.428 23.6228" stroke="#B15008" stroke-width="0.735043" stroke-linecap="round" stroke-linejoin="round"/>
<path d="M335.761 27.1371C334.027 27.0676 332.377 25.296 331.878 24.2678" stroke="#B15008" stroke-width="0.735043" stroke-linecap="round" stroke-linejoin="round"/>
<path d="M370.447 29.9561C376.839 30.9566 379.994 21.4735 374.801 13.9773" stroke="#B15008" stroke-width="0.735043" stroke-linecap="round" stroke-linejoin="round"/>
<path d="M364.042 21.198C362.703 17.7244 367.168 12.1179 369.588 15.9667C372.361 20.3713 368.312 26.214 364.042 25.693" stroke="#B15008" stroke-width="0.735043" stroke-linecap="round" stroke-linejoin="round"/>
<path d="M367.853 30.703C366.323 26.146 363.732 22.0192 360.296 18.6633C360.296 18.6633 362.237 22.6094 360.816 25.4161C363.283 27.0102 365.634 28.7769 367.853 30.703Z" fill="#8276ED"/>
<path d="M361.475 44.9643C360.185 42.6786 357.946 42.8036 356.767 44.728" stroke="#EF8A66" stroke-width="0.735043" stroke-linecap="round" stroke-linejoin="round"/>
<path d="M357.238 44.1178C359.893 43.4231 359.9 46.994 357.078 46.4869" stroke="#EF8A66" stroke-width="0.735043" stroke-linecap="round" stroke-linejoin="round"/>
<path d="M337.953 34.3059C337.995 36.3901 336.331 37.585 335.236 38.1617C334.14 38.7383 334.501 40.2459 334.577 40.4682" stroke="black" stroke-width="0.735043" stroke-linecap="round" stroke-linejoin="round"/>
<path d="M355.861 48.3471C355.436 47.7966 355.082 47.1943 354.808 46.5547" stroke="#EF8A66" stroke-width="0.735043" stroke-linecap="round" stroke-linejoin="round"/>
<path d="M343.853 41.3023C344.546 42.6223 346.675 42.8654 348.706 41.8581C350.738 40.8507 351.799 38.9541 351.133 37.6341C350.467 36.3141 348.311 36.0709 346.28 37.0853C344.248 38.0996 343.188 40.0101 343.853 41.3023Z" fill="#F4AF90"/>
<path d="M329.271 42.2604C329.706 42.4619 330.189 42.5356 330.664 42.4729C331.139 42.4101 331.587 42.2136 331.954 41.9061C332.96 40.8987 332.578 38.8562 331.095 37.2861C331.053 37.3973 330.998 37.5223 330.956 37.6335C330.367 39.0924 329.819 40.5514 329.389 41.8853C329.348 42.0173 329.313 42.1354 329.271 42.2604Z" fill="#F4AF90"/>
<path d="M277.27 83.9097H315.362C317.12 96.8436 313.165 114.604 310.967 121.868L269.945 121.165C269.945 117.229 270.921 112.496 271.41 110.621C276.098 112.87 275.317 109.215 274.34 107.106C276.684 107.106 276.293 105.232 275.805 104.295C277.563 103.17 277.026 101.014 276.537 100.077C279.468 98.9524 276.293 96.3281 274.34 95.1566L277.27 83.9097Z" fill="#FCF5E3" stroke="#FCF5E3" stroke-width="0.735043"/>
<path d="M285.197 92.1084C284.7 92.1084 284.279 92.2673 283.934 92.585C283.574 92.9219 283.394 93.3526 283.394 93.8771C283.394 94.4743 283.609 94.9433 284.038 95.284C284.363 95.5405 284.744 95.6688 285.18 95.6688C285.318 95.6688 285.46 95.6534 285.605 95.6228C285.804 95.9253 285.936 96.1128 286.001 96.1856C286.185 96.3885 286.377 96.4918 286.576 96.4957C286.897 96.488 287.156 96.2526 287.351 95.7893L287.219 95.7147C287.012 95.9138 286.832 96.0171 286.679 96.0248C286.503 96.0248 286.304 95.8985 286.082 95.6458C286.051 95.6075 286.011 95.5596 285.961 95.5022C286.394 95.307 286.691 94.9911 286.851 94.5547C286.928 94.3441 286.966 94.1221 286.966 93.8886C286.966 93.2646 286.744 92.7879 286.3 92.4587C285.982 92.2252 285.615 92.1084 285.197 92.1084ZM285.106 94.8993C284.899 94.9031 284.709 95.0256 284.537 95.2668C284.3 95.0256 284.181 94.5681 284.181 93.8943C284.181 92.9219 284.449 92.3879 284.985 92.2922C285.05 92.2807 285.117 92.2749 285.186 92.2749C285.703 92.2749 286.017 92.5869 286.128 93.211C286.162 93.4024 286.179 93.6206 286.179 93.8656C286.176 94.5892 286.045 95.0677 285.789 95.3012C285.536 95.0409 285.309 94.9069 285.106 94.8993ZM285.192 95.5022C284.977 95.4984 284.801 95.4544 284.663 95.3701C284.801 95.2247 284.933 95.15 285.06 95.1462C285.201 95.15 285.347 95.2553 285.496 95.462C285.412 95.4888 285.31 95.5022 285.192 95.5022ZM290.182 95.462H289.958V93.1535H288.982V93.2971H289.326L289.321 94.681C289.301 94.9873 289.19 95.2017 288.988 95.3242C288.911 95.3663 288.834 95.3874 288.758 95.3874C288.505 95.3874 288.36 95.2438 288.321 94.9567C288.314 94.9069 288.31 94.8571 288.31 94.8074V93.1535H287.311V93.2971H287.678V94.7155C287.682 95.3472 287.956 95.6649 288.499 95.6688C288.81 95.6688 289.056 95.5386 289.24 95.2783C289.279 95.2208 289.311 95.1634 289.338 95.106L289.367 95.6113H290.32C290.32 95.5233 290.295 95.4754 290.245 95.4678C290.226 95.4639 290.205 95.462 290.182 95.462ZM291.899 93.2224C292.136 93.2224 292.278 93.3622 292.324 93.6416C292.335 93.7029 292.341 93.7661 292.341 93.8311C292.341 94.0111 292.276 94.124 292.146 94.17C292.062 94.1929 291.939 94.2025 291.778 94.1987L291.336 94.1814C291.352 93.6378 291.495 93.3239 291.767 93.2397C291.813 93.2282 291.857 93.2224 291.899 93.2224ZM292.95 95.0313L292.812 94.9854C292.701 95.2266 292.525 95.3855 292.284 95.462C292.203 95.4888 292.121 95.5022 292.037 95.5022C291.589 95.5022 291.355 95.1213 291.336 94.3595C291.336 94.3556 291.336 94.3518 291.336 94.348L291.916 94.3595C292.49 94.3709 292.835 94.2886 292.95 94.1125C292.988 94.0513 293.007 93.9785 293.007 93.8943C293.007 93.5919 292.854 93.3641 292.548 93.211C292.357 93.1191 292.14 93.0731 291.899 93.0731C291.459 93.0731 291.122 93.232 290.888 93.5498C290.724 93.7756 290.641 94.0494 290.641 94.3709C290.641 94.8954 290.835 95.2706 291.221 95.4965C291.428 95.6113 291.66 95.6688 291.916 95.6688C292.353 95.6688 292.669 95.5137 292.864 95.2036C292.898 95.1462 292.927 95.0888 292.95 95.0313ZM294.276 95.508C294.533 95.508 294.692 95.4218 294.753 95.2495C294.765 95.2113 294.77 95.173 294.77 95.1347C294.77 94.9509 294.65 94.7959 294.408 94.6696C294.355 94.6428 294.271 94.6045 294.156 94.5547C293.861 94.4245 293.664 94.3059 293.564 94.1987C293.461 94.0762 293.409 93.9345 293.409 93.7737C293.409 93.4713 293.574 93.2626 293.903 93.1478C294.049 93.098 294.211 93.0731 294.391 93.0731C294.671 93.0731 294.9 93.1267 295.08 93.2339C295.08 93.1191 295.111 93.0559 295.172 93.0444C295.191 93.0406 295.211 93.0387 295.23 93.0387V93.7565H295.057C295.042 93.4081 294.851 93.232 294.483 93.2282C294.227 93.2282 294.068 93.3086 294.007 93.4694C293.991 93.5115 293.984 93.5536 293.984 93.5957C293.984 93.7565 294.098 93.8962 294.328 94.0149C294.378 94.0379 294.458 94.0742 294.569 94.124C294.872 94.2542 295.073 94.3748 295.172 94.4858C295.287 94.616 295.345 94.7691 295.345 94.9452C295.345 95.2706 295.176 95.4888 294.839 95.5998C294.701 95.6458 294.548 95.6688 294.38 95.6688C294.058 95.6688 293.788 95.6056 293.57 95.4793C293.57 95.5788 293.545 95.6362 293.495 95.6515C293.472 95.6554 293.446 95.6573 293.415 95.6573V94.7844H293.599C293.606 95.2629 293.832 95.5041 294.276 95.508ZM295.632 93.3201H296.028V94.8131C296.062 95.3682 296.321 95.6554 296.803 95.6745C297.106 95.6745 297.31 95.5539 297.418 95.3127C297.456 95.2285 297.486 95.127 297.509 95.0084L297.354 94.9854C297.27 95.3261 297.134 95.4984 296.947 95.5022C296.786 95.5022 296.692 95.3931 296.665 95.1749C296.661 95.1366 296.66 95.0983 296.66 95.06V93.3201H297.464V93.1708H296.66V92.5046L296.028 92.6252V93.1708H295.632V93.3201ZM298.934 95.462H298.698V93.1535H297.693V93.2971H298.066V95.1519C298.066 95.3165 298.003 95.4142 297.877 95.4448C297.831 95.4563 297.77 95.462 297.693 95.462V95.6113H299.071C299.071 95.5233 299.043 95.4754 298.985 95.4678C298.97 95.4639 298.953 95.462 298.934 95.462ZM298.756 92.3725C298.756 92.2156 298.685 92.0988 298.543 92.0223C298.486 91.9916 298.426 91.9763 298.365 91.9763C298.208 91.9763 298.093 92.0471 298.021 92.1888C297.99 92.25 297.975 92.3113 297.975 92.3725C297.975 92.5333 298.045 92.6482 298.187 92.7171C298.245 92.7439 298.304 92.7573 298.365 92.7573C298.522 92.7573 298.637 92.6903 298.71 92.5563C298.74 92.4989 298.756 92.4376 298.756 92.3725ZM300.094 94.3709C300.094 93.789 300.197 93.4311 300.404 93.2971C300.488 93.2473 300.586 93.2224 300.697 93.2224C300.988 93.2224 301.171 93.3871 301.248 93.7163C301.286 93.8771 301.305 94.0876 301.305 94.348C301.305 94.9643 301.189 95.3357 300.955 95.462C300.878 95.5003 300.792 95.5194 300.697 95.5194C300.409 95.5194 300.228 95.3548 300.151 95.0256C300.113 94.861 300.094 94.6428 300.094 94.3709ZM300.72 93.0731C300.283 93.0731 299.939 93.2224 299.686 93.5211C299.494 93.7508 299.399 94.0264 299.399 94.348C299.399 94.7921 299.556 95.1404 299.87 95.3931C300.099 95.5769 300.369 95.6688 300.679 95.6688C301.104 95.6688 301.443 95.5156 301.696 95.2094C301.895 94.9682 301.994 94.681 301.994 94.348C301.994 93.9001 301.834 93.5574 301.512 93.3201C301.29 93.1554 301.026 93.0731 300.72 93.0731ZM303.493 95.462H303.315L303.321 94.0436C303.348 93.7374 303.463 93.5268 303.665 93.4119C303.738 93.3737 303.811 93.3545 303.884 93.3545C304.098 93.3545 304.234 93.4675 304.291 93.6933C304.311 93.7622 304.32 93.8388 304.32 93.923V95.1519C304.32 95.3127 304.276 95.4084 304.188 95.4391C304.146 95.4544 304.085 95.462 304.004 95.462V95.6113H305.319C305.319 95.5271 305.294 95.4793 305.245 95.4678C305.222 95.4639 305.199 95.462 305.176 95.462H304.952V94.0092C304.952 93.5574 304.795 93.2665 304.481 93.1363C304.381 93.0942 304.274 93.0731 304.159 93.0731C303.884 93.0731 303.65 93.1822 303.459 93.4005C303.397 93.4732 303.348 93.5498 303.309 93.6302L303.281 93.1535H302.316V93.2971H302.683V95.1519C302.683 95.3204 302.62 95.418 302.494 95.4448C302.444 95.4563 302.385 95.462 302.316 95.462V95.6113H303.637C303.637 95.5271 303.612 95.4793 303.562 95.4678C303.539 95.4639 303.516 95.462 303.493 95.462Z" fill="#FAC536"/>
<path d="M278.779 99.3457C285.455 100.723 300.928 102.651 309.41 99.3457" stroke="#FED76E" stroke-width="0.735043"/>
<path d="M281.725 105.249C288.401 106.626 303.873 108.554 312.356 105.249" stroke="#FED76E" stroke-width="0.735043"/>
<path d="M277.07 109.269C283.676 110.952 299.044 113.59 307.669 110.679" stroke="#FED76E" stroke-width="0.735043"/>
<path d="M43.6083 45.7997C43.0078 48.0396 44.5292 49.485 46.494 49.1361" stroke="#F68C45" stroke-width="0.735043" stroke-linecap="round" stroke-linejoin="round"/>
<path d="M45.5045 49.7765C42.3993 47.6871 45.4189 44.7955 47.6633 48.0219" stroke="#F68C45" stroke-width="0.735043" stroke-linecap="round" stroke-linejoin="round"/>
<path d="M39.9221 13.9658C37.861 11.7958 35.2559 10.1201 32.2758 9.04735" stroke="#B75105" stroke-width="0.999658" stroke-linecap="round" stroke-linejoin="round"/>
<path d="M35.8118 18.043C33.7152 16.3514 31.9819 14.2879 30.7243 11.9862" stroke="#B75105" stroke-width="0.999658" stroke-linecap="round" stroke-linejoin="round"/>
<path d="M33.8912 22.3831C34.0577 22.852 34.2945 23.271 34.5877 23.6157C34.5877 23.6157 39.0644 27.9704 42.0406 25.8544C45.0168 23.7384 48.7603 18.5896 48.7603 18.5896C50.1117 17.3699 50.8619 16.4038 51.163 15.3023C51.0529 12.0713 50.0079 9.72222 47.5812 10.5924C44.1417 11.8286 42.4121 14.2187 39.0868 12.9046C39.0868 12.9046 37.8972 21.5896 33.8912 22.3831Z" fill="#9F4603"/>
<path d="M32.8828 23.622C36.4454 25.1833 45.2378 22.3527 46.3022 14.3927C47.3665 6.43272 38.283 16.1227 38.1624 16.3842C38.0417 16.6457 31.6692 21.3659 32.8828 23.622Z" fill="#FAC536"/>
<path d="M67.486 54.5195C67.4853 54.4701 67.8405 54.4152 68.4146 54.3652C68.5597 54.358 68.6982 54.329 68.7286 54.1807C68.7693 54.0244 68.7188 53.7792 68.6594 53.5142C68.546 52.9637 68.427 52.3868 68.3023 51.7824C67.8086 49.3183 67.461 47.2989 67.5258 47.2698C67.5904 47.241 68.043 49.2147 68.5366 51.6788C68.6549 52.286 68.7681 52.8648 68.8755 53.4185C68.9197 53.6759 69.0018 53.9713 68.9145 54.2952C68.8688 54.4564 68.7578 54.565 68.6637 54.5931C68.5694 54.6263 68.4883 54.6199 68.4165 54.6186C67.8417 54.6037 67.4861 54.569 67.486 54.5195Z" fill="#0C2B34"/>
<defs>
<clipPath id="clip0_117_142">
<rect width="265.543" height="172" fill="white"/>
</clipPath>
</defs>
</svg>
